<svg xmlns="http://www.w3.org/2000/svg" viewBox="0 0 64 64" id="big-ship"><g><circle cx="32" cy="32" r="29" fill="#63cdf7"></circle><path fill="#f9b233" d="M53.888 16.095H61v2.672h-7.112zM22.82 22.476v4.45l3.73-.001L32 33.98h19.141L61 33.976v.004-11.504H22.82z"></path><path fill="#f99a03" d="M56.086 18.766H61v3.706h-4.914z"></path><path fill="#3c3c3b" d="M61 33.98H32l-5.45-7.055H10.906l12.154 20.98H61V33.98z"></path><path style="mix-blend-mode:multiply" d="M57.624 16.095H61v31.811h-3.376z" opacity=".1"></path><path fill="#fff" style="mix-blend-mode:overlay" d="m10.906 26.925 12.154 20.98h4l-12.154-20.98h-4z" opacity=".2"></path><path fill="#f99a03" d="M28.086 18.766h5.602v3.706h-5.602z"></path><path fill="#f9b233" d="M25.888 16.095h9.998v2.672h-9.998z"></path><path fill="#f99a03" d="M42.086 18.766h5.602v3.706h-5.602z"></path><path fill="#f9b233" d="M39.888 16.095h9.998v2.672h-9.998z"></path><circle cx="36.788" cy="28.28" r="3.1" fill="#fff"></circle><path fill="#1d1d1b" style="mix-blend-mode:multiply" d="M36.788 25.18a3.086 3.086 0 0 0-.588.06 3.024 3.024 0 0 1 1.711 3.04 3.024 3.024 0 0 1-1.711 3.041 3.1 3.1 0 1 0 .588-6.141Z" opacity=".15"></path><circle cx="46.788" cy="28.28" r="3.1" fill="#fff"></circle><circle cx="56.788" cy="28.28" r="3.1" fill="#fff"></circle><path fill="#1d1d1b" style="mix-blend-mode:multiply" d="M46.788 25.128a3.086 3.086 0 0 0-.588.06 3.024 3.024 0 0 1 1.711 3.04 3.024 3.024 0 0 1-1.711 3.041 3.1 3.1 0 1 0 .588-6.141zm10 0a3.086 3.086 0 0 0-.588.06 3.024 3.024 0 0 1 1.711 3.04 3.024 3.024 0 0 1-1.711 3.041 3.1 3.1 0 1 0 .588-6.141z" opacity=".15"></path><path style="mix-blend-mode:overlay" fill="#fff" d="M22.82 22.473h2.716v4.349H22.82z" opacity=".2"></path></g></svg>