<svg xmlns="http://www.w3.org/2000/svg" width="32" height="32" id="boat"><path fill="#f05542" fill-rule="evenodd" d="m5.5 5.04 3 1-3 1"></path><path fill="none" stroke="#576d7e" stroke-linecap="round" stroke-linejoin="round" d="M5.5 8.64v-3.6"></path><path fill="#34485c" d="m1 14.54 4.27 9.548a3.48 3.48 0 0 0 2.605-.773.5.5 0 0 1 .603-.027l.018.011a.511.511 0 0 1 .033.026c1.26 1.032 3.033 1.014 4.319.037a.5.5 0 0 1 .293-.147l.093-.011a.5.5 0 0 1 .45.18 3.446 3.446 0 0 0 4.17-.026.5.5 0 0 1 .283-.143l.086-.011a.5.5 0 0 1 .45.175 3.449 3.449 0 0 0 4.18-.023.5.5 0 0 1 .284-.143l.086-.011a.5.5 0 0 1 .45.176 3.58 3.58 0 0 0 2.06.707L30 14.539zm6.894 9.558.016.014h.008c-.007-.004-.016-.004-.023-.014z"></path><path fill="#f05542" d="M13 10.539h7v4h-7z"></path><path fill="#25b19c" d="M20 10.539h7v4h-7z"></path><path fill="#f8b84e" d="M17 6.539h7v4h-7z"></path><path fill="#576d7e" d="M2 11.539h7v3H2z"></path><path fill="#34485c" d="M4 8.539h3v3H4z"></path><path style="line-height:normal;text-indent:0;text-align:start;text-decoration-line:none;text-decoration-style:solid;text-decoration-color:#000;text-transform:none;block-progression:tb;isolation:auto;mix-blend-mode:normal" fill="#576d7e" fill-rule="evenodd" d="m97.07 555.58.455 1h5.967a.5.5 0 1 0 0-1H97.07z" color="#000" font-family="sans-serif" font-weight="400" overflow="visible" transform="translate(-94.252 -537.039)"></path><path style="line-height:normal;text-indent:0;text-align:start;text-decoration-line:none;text-decoration-style:solid;text-decoration-color:#000;text-transform:none;block-progression:tb;isolation:auto;mix-blend-mode:normal" fill="#576d7e" d="M119.252 554.58a.5.5 0 0 0-.5.5v2a.5.5 0 0 0 .5.5h2.271l.456-1h-2.227v-1h2.682l.453-1h-3.635z" color="#000" font-family="sans-serif" font-weight="400" overflow="visible" transform="translate(-94.252 -537.039)"></path><path fill="none" stroke="#4bbfeb" stroke-dashoffset=".4" stroke-linecap="round" stroke-linejoin="round" d="M28.291 23.544a4 4 0 0 1-5.086.012l.086-.012a4 4 0 0 1-5.086.012l.086-.012a4 4 0 0 1-5.086.012l.093-.012a4 4 0 0 1-5.087.012l-.017-.012a4 4 0 0 1-5.087.012M27.99 25.584a4 4 0 0 1-5.087.012l-.066-.012a4 4 0 0 1-5.087.012l.087-.012a4 4 0 0 1-5.087.012l.087-.012a4 4 0 0 1-5.087.012l.094-.012a4 4 0 0 1-5.087.012"></path></svg>