<?xml version="1.0" encoding="UTF-8" standalone="no"?>
<!-- Created with Inkscape (http://www.inkscape.org/) -->

<svg
   xmlns:dc="http://purl.org/dc/elements/1.1/"
   xmlns:cc="http://creativecommons.org/ns#"
   xmlns:rdf="http://www.w3.org/1999/02/22-rdf-syntax-ns#"
   xmlns:svg="http://www.w3.org/2000/svg"
   xmlns="http://www.w3.org/2000/svg"
   xmlns:sodipodi="http://sodipodi.sourceforge.net/DTD/sodipodi-0.dtd"
   xmlns:inkscape="http://www.inkscape.org/namespaces/inkscape"
   id="svg3336"
   version="1.1"
   inkscape:version="0.91 r13725"
   width="318.75"
   height="324.375"
   viewBox="0 0 318.75 324.375"
   sodipodi:docname="CatMaze.svg">
  <metadata
     id="metadata3342">
    <rdf:RDF>
      <cc:Work
         rdf:about="">
        <dc:format>image/svg+xml</dc:format>
        <dc:type
           rdf:resource="http://purl.org/dc/dcmitype/StillImage" />
        <dc:title></dc:title>
      </cc:Work>
    </rdf:RDF>
  </metadata>
  <defs
     id="defs3340" />
  <sodipodi:namedview
     pagecolor="#ffffff"
     bordercolor="#666666"
     borderopacity="1"
     objecttolerance="10"
     gridtolerance="10"
     guidetolerance="10"
     inkscape:pageopacity="0"
     inkscape:pageshadow="2"
     inkscape:window-width="1600"
     inkscape:window-height="837"
     id="namedview3338"
     showgrid="false"
     inkscape:zoom="2.0655106"
     inkscape:cx="159.375"
     inkscape:cy="162.1875"
     inkscape:window-x="-8"
     inkscape:window-y="-8"
     inkscape:window-maximized="1"
     inkscape:current-layer="svg3336" />
  <path
     style="fill:#ffffff"
     d="m 56.25,315.9375 0,-8.4375 -6.5625,0 -6.5625,0 0,0.9375 0,0.9375 5.625,0 5.625,0 0,4.6875 0,4.6875 -10.3125,0 -10.3125,0 0,-2.8125 0,-2.8125 -2.8125,0 -2.8125,0 0,-2.8125 0,-2.8125 -0.9375,0 -0.9375,0 0,2.8125 0,2.8125 -1.875,0 -1.875,0 0,-2.8125 0,-2.8125 -2.8125,0 -2.8125,0 0,-4.6875 0,-4.6875 2.8125,0 2.8125,0 0,-0.9375 0,-0.9375 -2.8125,0 -2.8125,0 0,-2.8125 0,-2.8125 -0.9375,0 -0.9375,0 0,5.625 0,5.625 -1.875,0 -1.875,0 0,-2.8125 0,-2.8125 -2.8125,0 -2.8125,0 0,-5.625 0,-5.625 -2.8125,0 L 0,285 0,266.25 0,247.5 l 4.6875,0 4.6875,0 0,5.625 0,5.625 0.9375,0 0.9375,0 0,-8.4375 0,-8.4375 2.8125,0 2.8125,0 0,-0.9375 0,-0.9375 -3.75,0 -3.75,0 0,2.8125 0,2.8125 -1.875,0 -1.875,0 0,-4.6875 0,-4.6875 2.8125,0 2.8125,0 0,-2.8125 0,-2.8125 2.8125,0 2.8125,0 0,-2.8125 0,-2.8125 5.625,0 5.625,0 0,-0.9375 0,-0.9375 -2.8125,0 -2.8125,0 0,-1.875 0,-1.875 11.25,0 11.25,0 0,-0.9375 0,-0.9375 -5.625,0 -5.625,0 0,-1.875 0,-1.875 7.5,0 7.5,0 0,2.8125 0,2.8125 2.8125,0 2.8125,0 0,1.875 0,1.875 -11.25,0 -11.25,0 0,2.8125 0,2.8125 -2.8125,0 -2.8125,0 0,2.8125 0,2.8125 -1.875,0 -1.875,0 0,-2.8125 0,-2.8125 -0.9375,0 -0.9375,0 0,2.8125 0,2.8125 -2.8125,0 -2.8125,0 0,0.9375 0,0.9375 2.8125,0 2.8125,0 0,4.6875 0,4.6875 -2.8125,0 -2.8125,0 0,11.25 0,11.25 -2.8125,0 -2.8125,0 0,3.75 0,3.75 0.9375,0 0.9375,0 0,-2.8125 0,-2.8125 1.875,0 1.875,0 0,7.5 0,7.5 -1.875,0 -1.875,0 0,-2.8125 0,-2.8125 -2.8125,0 -2.8125,0 0,-7.5 0,-7.5 2.8125,0 2.8125,0 0,-0.9375 0,-0.9375 -2.8125,0 -2.8125,0 0,-5.625 0,-5.625 -0.9375,0 -0.9375,0 0,15 0,15 2.8125,0 2.8125,0 0,5.625 0,5.625 0.9375,0 0.9375,0 0,-2.8125 0,-2.8125 4.6875,0 4.6875,0 0,2.8125 0,2.8125 2.8125,0 2.8125,0 0,2.8125 0,2.8125 5.625,0 5.625,0 0,4.6875 0,4.6875 -1.875,0 -1.875,0 0,-2.8125 0,-2.8125 -6.5625,0 -6.5625,0 0,0.9375 0,0.9375 5.625,0 5.625,0 0,2.8125 0,2.8125 2.8125,0 2.8125,0 0,2.8125 0,2.8125 6.5625,0 6.5625,0 0,-0.9375 0,-0.9375 -5.625,0 -5.625,0 0,-4.6875 0,-4.6875 13.125,0 13.125,0 0,4.6875 0,4.6875 -1.875,0 -1.875,0 0,-2.8125 0,-2.8125 -0.9375,0 -0.9375,0 0,3.75 0,3.75 5.625,0 5.625,0 0,1.875 0,1.875 -2.8125,0 -2.8125,0 0,0.9375 0,0.9375 3.75,0 3.75,0 0,-3.75 0,-3.75 -2.8125,0 -2.8125,0 0,-4.6875 0,-4.6875 15.9375,0 15.9375,0 0,1.875 0,1.875 -8.4375,0 -8.4375,0 0,3.75 0,3.75 0.9375,0 0.9375,0 0,-2.8125 0,-2.8125 8.4375,0 8.4375,0 0,-5.625 0,-5.625 1.875,0 1.875,0 0,2.8125 0,2.8125 0.9375,0 0.9375,0 0,-5.625 0,-5.625 1.875,0 1.875,0 0,2.8125 0,2.8125 0.9375,0 0.9375,0 0,-16.875 0,-16.875 2.8125,0 2.8125,0 0,-2.8125 0,-2.8125 1.875,0 1.875,0 0,2.8125 0,2.8125 5.625,0 5.625,0 0,2.8125 0,2.8125 0.9375,0 0.9375,0 0,-2.8125 0,-2.8125 1.875,0 1.875,0 0,4.6875 0,4.6875 -4.6875,0 -4.6875,0 0,-2.8125 0,-2.8125 -6.5625,0 -6.5625,0 0,9.375 0,9.375 0.9375,0 0.9375,0 0,-8.4375 0,-8.4375 4.6875,0 4.6875,0 0,2.8125 0,2.8125 6.5625,0 6.5625,0 0,-5.625 0,-5.625 2.8125,0 2.8125,0 0,-2.8125 0,-2.8125 1.875,0 1.875,0 0,2.8125 0,2.8125 6.5625,0 6.5625,0 0,-2.8125 0,-2.8125 1.875,0 1.875,0 0,10.3125 0,10.3125 -4.6875,0 -4.6875,0 0,-4.6875 0,-4.6875 1.875,0 1.875,0 0,2.8125 0,2.8125 0.9375,0 0.9375,0 0,-3.75 0,-3.75 -3.75,0 -3.75,0 0,6.5625 0,6.5625 12.1875,0 12.1875,0 0,-2.8125 0,-2.8125 1.875,0 1.875,0 0,2.8125 0,2.8125 8.4375,0 8.4375,0 0,2.8125 0,2.8125 0.9375,0 0.9375,0 0,-2.8125 0,-2.8125 5.625,0 5.625,0 0,-5.625 0,-5.625 2.8125,0 2.8125,0 0,-0.9375 0,-0.9375 -5.625,0 -5.625,0 0,-2.8125 0,-2.8125 -2.8125,0 -2.8125,0 0,-4.6875 0,-4.6875 4.6875,0 4.6875,0 0,1.875 0,1.875 -2.8125,0 -2.8125,0 0,0.9375 0,0.9375 2.8125,0 2.8125,0 0,2.8125 0,2.8125 0.9375,0 0.9375,0 0,-6.5625 0,-6.5625 -5.625,0 -5.625,0 0,-2.8125 0,-2.8125 -0.9375,0 -0.9375,0 0,2.8125 0,2.8125 -2.8125,0 -2.8125,0 0,0.9375 0,0.9375 2.8125,0 2.8125,0 0,4.6875 0,4.6875 -5.625,0 -5.625,0 0,0.9375 0,0.9375 8.4375,0 8.4375,0 0,2.8125 0,2.8125 2.8125,0 2.8125,0 0,4.6875 0,4.6875 -7.5,0 -7.5,0 0,-2.8125 0,-2.8125 -0.9375,0 -0.9375,0 0,2.8125 0,2.8125 -4.6875,0 -4.6875,0 0,-2.8125 0,-2.8125 -3.75,0 -3.75,0 0,2.8125 0,2.8125 -4.6875,0 -4.6875,0 0,-7.5 0,-7.5 5.625,0 5.625,0 0,-0.9375 0,-0.9375 -5.625,0 -5.625,0 0,-2.8125 0,-2.8125 -3.75,0 -3.75,0 0,2.8125 0,2.8125 -4.6875,0 -4.6875,0 0,-2.8125 0,-2.8125 -3.75,0 -3.75,0 0,2.8125 0,2.8125 -10.3125,0 -10.3125,0 0,-2.8125 0,-2.8125 -2.8125,0 -2.8125,0 0,-2.8125 0,-2.8125 -2.8125,0 -2.8125,0 0,-1.875 0,-1.875 2.8125,0 2.8125,0 0,-0.9375 0,-0.9375 -2.8125,0 -2.8125,0 0,-5.625 0,-5.625 -2.8125,0 -2.8125,0 0,-4.6875 0,-4.6875 2.8125,0 2.8125,0 0,-11.25 0,-11.25 1.875,0 1.875,0 0,11.25 0,11.25 0.9375,0 0.9375,0 0,-19.6875 0,-19.6875 1.875,0 1.875,0 0,5.625 0,5.625 11.25,0 11.25,0 0,5.625 0,5.625 5.625,0 5.625,0 0,2.8125 0,2.8125 3.75,0 3.75,0 0,-3.75 0,-3.75 -0.9375,0 -0.9375,0 0,2.8125 0,2.8125 -1.875,0 -1.875,0 0,-2.8125 0,-2.8125 -2.8125,0 -2.8125,0 0,-2.8125 0,-2.8125 -0.9375,0 -0.9375,0 0,2.8125 0,2.8125 -1.875,0 -1.875,0 0,-4.6875 0,-4.6875 4.6875,0 4.6875,0 0,2.8125 0,2.8125 6.5625,0 6.5625,0 0,-8.4375 0,-8.4375 4.6875,0 4.6875,0 0,11.25 0,11.25 0.9375,0 0.9375,0 0,-2.8125 0,-2.8125 2.8125,0 2.8125,0 0,-0.9375 0,-0.9375 -2.8125,0 -2.8125,0 0,-4.6875 0,-4.6875 1.875,0 1.875,0 0,2.8125 0,2.8125 6.5625,0 6.5625,0 0,-2.8125 0,-2.8125 1.875,0 1.875,0 0,2.8125 0,2.8125 5.625,0 5.625,0 0,1.875 0,1.875 -8.4375,0 -8.4375,0 0,5.625 0,5.625 -2.8125,0 -2.8125,0 0,0.9375 0,0.9375 2.8125,0 2.8125,0 0,1.875 0,1.875 -5.625,0 -5.625,0 0,0.9375 0,0.9375 2.8125,0 2.8125,0 0,1.875 0,1.875 -7.5,0 -7.5,0 0,-2.8125 0,-2.8125 -0.9375,0 -0.9375,0 0,2.8125 0,2.8125 -1.875,0 -1.875,0 0,-7.5 0,-7.5 1.875,0 1.875,0 0,2.8125 0,2.8125 2.8125,0 2.8125,0 0,2.8125 0,2.8125 0.9375,0 0.9375,0 0,-2.8125 0,-2.8125 2.8125,0 2.8125,0 0,-2.8125 0,-2.8125 2.8125,0 2.8125,0 0,-3.75 0,-3.75 -0.9375,0 -0.9375,0 0,2.8125 0,2.8125 -2.8125,0 -2.8125,0 0,2.8125 0,2.8125 -4.6875,0 -4.6875,0 0,-11.25 0,-11.25 -0.9375,0 -0.9375,0 0,8.4375 0,8.4375 -2.8125,0 -2.8125,0 0,5.625 0,5.625 -5.625,0 -5.625,0 0,2.8125 0,2.8125 -1.875,0 -1.875,0 0,-5.625 0,-5.625 -8.4375,0 -8.4375,0 0,-2.8125 0,-2.8125 -0.9375,0 -0.9375,0 0,5.625 0,5.625 -1.875,0 -1.875,0 0,-7.5 0,-7.5 4.6875,0 4.6875,0 0,2.8125 0,2.8125 0.9375,0 0.9375,0 0,-3.75 0,-3.75 -9.375,0 -9.375,0 0,0.9375 0,0.9375 2.8125,0 2.8125,0 0,8.4375 0,8.4375 2.8125,0 2.8125,0 0,2.8125 0,2.8125 3.75,0 3.75,0 0,-0.9375 0,-0.9375 -2.8125,0 -2.8125,0 0,-4.6875 0,-4.6875 7.5,0 7.5,0 0,8.4375 0,8.4375 0.9375,0 0.9375,0 0,-2.8125 0,-2.8125 2.8125,0 2.8125,0 0,-2.8125 0,-2.8125 4.6875,0 4.6875,0 0,2.8125 0,2.8125 11.25,0 11.25,0 0,2.8125 0,2.8125 0.9375,0 0.9375,0 0,-5.625 0,-5.625 5.625,0 5.625,0 0,-0.9375 0,-0.9375 -2.8125,0 -2.8125,0 0,-7.5 0,-7.5 8.4375,0 8.4375,0 0,-3.75 0,-3.75 -5.625,0 -5.625,0 0,-5.625 0,-5.625 -0.9375,0 -0.9375,0 0,2.8125 0,2.8125 -2.8125,0 -2.8125,0 0,2.8125 0,2.8125 -4.6875,0 -4.6875,0 0,-2.8125 0,-2.8125 -2.8125,0 -2.8125,0 0,-2.8125 0,-2.8125 -5.625,0 -5.625,0 0,-2.8125 0,-2.8125 -0.9375,0 -0.9375,0 0,11.25 0,11.25 -4.6875,0 -4.6875,0 0,-2.8125 0,-2.8125 -16.875,0 -16.875,0 0,-10.3125 0,-10.3125 1.875,0 1.875,0 0,5.625 0,5.625 3.75,0 3.75,0 0,-0.9375 0,-0.9375 -2.8125,0 -2.8125,0 0,-10.3125 0,-10.3125 2.8125,0 2.8125,0 0,-2.8125 0,-2.8125 1.875,0 1.875,0 0,2.8125 0,2.8125 2.8125,0 2.8125,0 0,2.8125 0,2.8125 0.9375,0 0.9375,0 0,-2.8125 0,-2.8125 1.875,0 1.875,0 0,2.8125 0,2.8125 2.8125,0 2.8125,0 0,4.6875 0,4.6875 -1.875,0 -1.875,0 0,-2.8125 0,-2.8125 -5.625,0 -5.625,0 0,-2.8125 0,-2.8125 -0.9375,0 -0.9375,0 0,3.75 0,3.75 5.625,0 5.625,0 0,2.8125 0,2.8125 3.75,0 3.75,0 0,-6.5625 0,-6.5625 -2.8125,0 -2.8125,0 0,-2.8125 0,-2.8125 -5.625,0 -5.625,0 0,-4.6875 0,-4.6875 2.8125,0 2.8125,0 0,-2.8125 0,-2.8125 2.8125,0 2.8125,0 0,-2.8125 0,-2.8125 1.875,0 1.875,0 0,2.8125 0,2.8125 2.8125,0 2.8125,0 0,1.875 0,1.875 -5.625,0 -5.625,0 0,0.9375 0,0.9375 5.625,0 5.625,0 0,2.8125 0,2.8125 2.8125,0 2.8125,0 0,2.8125 0,2.8125 0.9375,0 0.9375,0 0,-3.75 0,-3.75 -2.8125,0 -2.8125,0 0,-4.6875 0,-4.6875 2.8125,0 2.8125,0 0,-0.9375 0,-0.9375 -5.625,0 -5.625,0 0,-4.6875 0,-4.6875 2.8125,0 2.8125,0 0,-2.8125 0,-2.8125 4.6875,0 4.6875,0 0,1.875 0,1.875 -2.8125,0 -2.8125,0 0,0.9375 0,0.9375 3.75,0 3.75,0 0,-5.625 0,-5.625 5.625,0 5.625,0 0,-2.8125 0,-2.8125 8.4375,0 8.4375,0 0,-2.8125 0,-2.8125 1.875,0 1.875,0 0,4.6875 0,4.6875 -2.8125,0 -2.8125,0 0,0.9375 0,0.9375 3.75,0 3.75,0 0,-5.625 0,-5.625 2.8125,0 2.8125,0 0,-2.8125 0,-2.8125 4.6875,0 4.6875,0 0,7.5 0,7.5 -2.8125,0 -2.8125,0 0,0.9375 0,0.9375 5.625,0 5.625,0 0,7.5 0,7.5 -7.5,0 -7.5,0 0,-1.875 0,-1.875 5.625,0 5.625,0 0,-3.75 0,-3.75 -0.9375,0 -0.9375,0 0,2.8125 0,2.8125 -5.625,0 -5.625,0 0,3.75 0,3.75 11.25,0 11.25,0 0,2.8125 0,2.8125 0.9375,0 0.9375,0 0,-2.8125 0,-2.8125 4.6875,0 4.6875,0 0,2.8125 0,2.8125 0.9375,0 0.9375,0 0,-2.8125 0,-2.8125 5.625,0 5.625,0 0,-0.9375 0,-0.9375 -5.625,0 -5.625,0 0,-4.6875 0,-4.6875 1.875,0 1.875,0 0,2.8125 0,2.8125 5.625,0 5.625,0 0,4.6875 0,4.6875 -5.625,0 -5.625,0 0,2.8125 0,2.8125 -2.8125,0 -2.8125,0 0,6.5625 0,6.5625 2.8125,0 2.8125,0 0,1.875 0,1.875 -11.25,0 -11.25,0 0,2.8125 0,2.8125 -5.625,0 -5.625,0 0,0.9375 0,0.9375 2.8125,0 2.8125,0 0,2.8125 0,2.8125 0.9375,0 0.9375,0 0,-2.8125 0,-2.8125 1.875,0 1.875,0 0,4.6875 0,4.6875 -4.6875,0 -4.6875,0 0,-2.8125 0,-2.8125 -2.8125,0 -2.8125,0 0,-2.8125 0,-2.8125 -2.8125,0 -2.8125,0 0,-1.875 0,-1.875 5.625,0 5.625,0 0,-2.8125 0,-2.8125 1.875,0 1.875,0 0,2.8125 0,2.8125 0.9375,0 0.9375,0 0,-2.8125 0,-2.8125 2.8125,0 2.8125,0 0,-5.625 0,-5.625 4.6875,0 4.6875,0 0,4.6875 0,4.6875 -1.875,0 -1.875,0 0,-2.8125 0,-2.8125 -0.9375,0 -0.9375,0 0,3.75 0,3.75 3.75,0 3.75,0 0,-9.375 0,-9.375 -0.9375,0 -0.9375,0 0,2.8125 0,2.8125 -4.6875,0 -4.6875,0 0,-2.8125 0,-2.8125 -0.9375,0 -0.9375,0 0,2.8125 0,2.8125 -2.8125,0 -2.8125,0 0,0.9375 0,0.9375 2.8125,0 2.8125,0 0,4.6875 0,4.6875 -5.625,0 -5.625,0 0,2.8125 0,2.8125 -7.5,0 -7.5,0 0,-2.8125 0,-2.8125 -0.9375,0 -0.9375,0 0,3.75 0,3.75 2.8125,0 2.8125,0 0,2.8125 0,2.8125 2.8125,0 2.8125,0 0,2.8125 0,2.8125 2.8125,0 2.8125,0 0,2.8125 0,2.8125 6.5625,0 6.5625,0 0,-8.4375 0,-8.4375 7.5,0 7.5,0 0,2.8125 0,2.8125 0.9375,0 0.9375,0 0,-2.8125 0,-2.8125 2.8125,0 2.8125,0 0,-3.75 0,-3.75 -2.8125,0 -2.8125,0 0,-4.6875 0,-4.6875 2.8125,0 2.8125,0 0,-2.8125 0,-2.8125 5.625,0 5.625,0 0,-5.625 0,-5.625 5.625,0 5.625,0 0,-5.625 0,-5.625 1.875,0 1.875,0 0,5.625 0,5.625 5.625,0 5.625,0 0,2.8125 0,2.8125 0.9375,0 0.9375,0 0,-3.75 0,-3.75 -5.625,0 -5.625,0 0,-4.6875 0,-4.6875 2.8125,0 2.8125,0 0,-2.8125 0,-2.8125 2.8125,0 2.8125,0 0,-3.75 0,-3.75 -0.9375,0 -0.9375,0 0,2.8125 0,2.8125 -2.8125,0 -2.8125,0 0,2.8125 0,2.8125 -5.625,0 -5.625,0 0,5.625 0,5.625 -4.6875,0 -4.6875,0 0,-2.8125 0,-2.8125 -0.9375,0 -0.9375,0 0,2.8125 0,2.8125 -4.6875,0 -4.6875,0 0,-2.8125 0,-2.8125 -3.75,0 -3.75,0 0,5.625 0,5.625 -7.5,0 -7.5,0 0,-4.6875 0,-4.6875 2.8125,0 2.8125,0 0,-0.9375 0,-0.9375 -2.8125,0 -2.8125,0 0,-2.8125 0,-2.8125 -2.8125,0 -2.8125,0 0,-10.3125 0,-10.3125 2.8125,0 2.8125,0 0,-2.8125 0,-2.8125 1.875,0 1.875,0 0,5.625 0,5.625 2.8125,0 2.8125,0 0,1.875 0,1.875 -2.8125,0 -2.8125,0 0,0.9375 0,0.9375 3.75,0 3.75,0 0,-3.75 0,-3.75 -2.8125,0 -2.8125,0 0,-7.5 0,-7.5 2.8125,0 2.8125,0 0,-2.8125 0,-2.8125 2.8125,0 2.8125,0 0,-29.0625 0,-29.0625 -0.9375,0 -0.9375,0 0,8.4375 0,8.4375 -1.875,0 -1.875,0 0,-10.3125 0,-10.3125 4.6875,0 4.6875,0 0,5.625 0,5.625 2.8125,0 2.8125,0 0,5.625 0,5.625 3.75,0 3.75,0 0,-3.75 0,-3.75 -0.9375,0 -0.9375,0 0,2.8125 0,2.8125 -1.875,0 -1.875,0 0,-4.6875 0,-4.6875 7.5,0 7.5,0 0,4.6875 0,4.6875 -1.875,0 -1.875,0 0,-2.8125 0,-2.8125 -0.9375,0 -0.9375,0 0,8.4375 0,8.4375 -5.625,0 -5.625,0 0,0.9375 0,0.9375 5.625,0 5.625,0 0,10.3125 0,10.3125 -4.6875,0 -4.6875,0 0,-5.625 0,-5.625 -0.9375,0 -0.9375,0 0,5.625 0,5.625 -1.875,0 -1.875,0 0,-7.5 0,-7.5 4.6875,0 4.6875,0 0,5.625 0,5.625 0.9375,0 0.9375,0 0,-6.5625 0,-6.5625 -5.625,0 -5.625,0 0,-4.6875 0,-4.6875 5.625,0 5.625,0 0,-0.9375 0,-0.9375 -5.625,0 -5.625,0 0,-5.625 0,-5.625 -0.9375,0 -0.9375,0 0,20.625 0,20.625 2.8125,0 2.8125,0 0,5.625 0,5.625 0.9375,0 0.9375,0 0,-5.625 0,-5.625 10.3125,0 10.3125,0 0,2.8125 0,2.8125 2.8125,0 2.8125,0 0,2.8125 0,2.8125 5.625,0 5.625,0 0,4.6875 0,4.6875 -7.5,0 -7.5,0 0,-1.875 0,-1.875 5.625,0 5.625,0 0,-0.9375 0,-0.9375 -8.4375,0 -8.4375,0 0,-1.875 0,-1.875 2.8125,0 2.8125,0 0,-0.9375 0,-0.9375 -2.8125,0 -2.8125,0 0,-2.8125 0,-2.8125 -0.9375,0 -0.9375,0 0,6.5625 0,6.5625 2.8125,0 2.8125,0 0,2.8125 0,2.8125 9.375,0 9.375,0 0,-9.375 0,-9.375 -0.9375,0 -0.9375,0 0,2.8125 0,2.8125 -4.6875,0 -4.6875,0 0,-2.8125 0,-2.8125 -2.8125,0 -2.8125,0 0,-8.4375 0,-8.4375 -0.9375,0 -0.9375,0 0,5.625 0,5.625 -4.6875,0 -4.6875,0 0,-15.9375 0,-15.9375 4.6875,0 4.6875,0 0,5.625 0,5.625 5.625,0 5.625,0 0,2.8125 0,2.8125 2.8125,0 2.8125,0 0,1.875 0,1.875 -2.8125,0 -2.8125,0 0,3.75 0,3.75 0.9375,0 0.9375,0 0,-2.8125 0,-2.8125 2.8125,0 2.8125,0 0,-2.8125 0,-2.8125 2.8125,0 2.8125,0 0,-0.9375 0,-0.9375 -5.625,0 -5.625,0 0,-7.5 0,-7.5 1.875,0 1.875,0 0,2.8125 0,2.8125 0.9375,0 0.9375,0 0,-2.8125 0,-2.8125 2.8125,0 2.8125,0 0,-0.9375 0,-0.9375 -2.8125,0 -2.8125,0 0,-2.8125 0,-2.8125 -0.9375,0 -0.9375,0 0,2.8125 0,2.8125 -2.8125,0 -2.8125,0 0,5.625 0,5.625 -4.6875,0 -4.6875,0 0,-5.625 0,-5.625 -2.8125,0 -2.8125,0 0,-5.625 0,-5.625 -11.25,0 -11.25,0 0,-5.625 0,-5.625 -8.4375,0 -8.4375,0 0,-4.6875 0,-4.6875 1.875,0 1.875,0 0,2.8125 0,2.8125 0.9375,0 0.9375,0 0,-3.75 0,-3.75 -2.8125,0 -2.8125,0 0,-4.6875 0,-4.6875 1.875,0 1.875,0 0,2.8125 0,2.8125 2.8125,0 2.8125,0 0,5.625 0,5.625 0.9375,0 0.9375,0 0,-2.8125 0,-2.8125 1.875,0 1.875,0 0,2.8125 0,2.8125 2.8125,0 2.8125,0 0,5.625 0,5.625 0.9375,0 0.9375,0 0,-2.8125 0,-2.8125 1.875,0 1.875,0 0,2.8125 0,2.8125 8.4375,0 8.4375,0 0,5.625 0,5.625 2.8125,0 2.8125,0 0,5.625 0,5.625 0.9375,0 0.9375,0 0,-5.625 0,-5.625 2.8125,0 2.8125,0 0,-2.8125 0,-2.8125 4.6875,0 4.6875,0 0,2.8125 0,2.8125 2.8125,0 2.8125,0 0,4.6875 0,4.6875 -2.8125,0 -2.8125,0 0,2.8125 0,2.8125 -2.8125,0 -2.8125,0 0,0.9375 0,0.9375 6.5625,0 6.5625,0 0,-0.9375 0,-0.9375 -2.8125,0 -2.8125,0 0,-1.875 0,-1.875 2.8125,0 2.8125,0 0,-11.25 0,-11.25 2.8125,0 2.8125,0 0,-12.1875 0,-12.1875 -0.9375,0 -0.9375,0 0,5.625 0,5.625 -2.8125,0 -2.8125,0 0,2.8125 0,2.8125 -2.8125,0 -2.8125,0 0,0.9375 0,0.9375 3.75,0 3.75,0 0,-2.8125 0,-2.8125 1.875,0 1.875,0 0,4.6875 0,4.6875 -2.8125,0 -2.8125,0 0,5.625 0,5.625 -1.875,0 -1.875,0 0,-2.8125 0,-2.8125 -6.5625,0 -6.5625,0 0,2.8125 0,2.8125 -4.6875,0 -4.6875,0 0,-4.6875 0,-4.6875 1.875,0 1.875,0 0,2.8125 0,2.8125 0.9375,0 0.9375,0 0,-2.8125 0,-2.8125 2.8125,0 2.8125,0 0,-2.8125 0,-2.8125 1.875,0 1.875,0 0,2.8125 0,2.8125 3.75,0 3.75,0 0,-0.9375 0,-0.9375 -2.8125,0 -2.8125,0 0,-4.6875 0,-4.6875 2.8125,0 2.8125,0 0,-5.625 0,-5.625 1.875,0 1.875,0 0,2.8125 0,2.8125 0.9375,0 0.9375,0 0,-5.625 0,-5.625 4.6875,0 4.6875,0 0,18.75 0,18.75 -1.875,0 -1.875,0 0,-2.8125 0,-2.8125 -0.9375,0 -0.9375,0 0,14.0625 0,14.0625 -2.8125,0 -2.8125,0 0,2.8125 0,2.8125 -2.8125,0 -2.8125,0 0,2.8125 0,2.8125 -2.8125,0 -2.8125,0 0,2.8125 0,2.8125 -4.6875,0 -4.6875,0 0,-8.4375 0,-8.4375 -5.625,0 -5.625,0 0,-5.625 0,-5.625 -0.9375,0 -0.9375,0 0,12.1875 0,12.1875 0.9375,0 0.9375,0 0,-5.625 0,-5.625 4.6875,0 4.6875,0 0,8.4375 0,8.4375 2.8125,0 2.8125,0 0,2.8125 0,2.8125 0.9375,0 0.9375,0 0,-2.8125 0,-2.8125 5.625,0 5.625,0 0,-0.9375 0,-0.9375 -2.8125,0 -2.8125,0 0,-1.875 0,-1.875 2.8125,0 2.8125,0 0,-2.8125 0,-2.8125 1.875,0 1.875,0 0,7.5 0,7.5 -2.8125,0 -2.8125,0 0,11.25 0,11.25 -13.125,0 -13.125,0 0,-2.8125 0,-2.8125 -2.8125,0 -2.8125,0 0,-8.4375 0,-8.4375 -3.75,0 -3.75,0 0,5.625 0,5.625 -4.6875,0 -4.6875,0 0,-5.625 0,-5.625 -0.9375,0 -0.9375,0 0,2.8125 0,2.8125 -2.8125,0 -2.8125,0 0,2.8125 0,2.8125 -2.8125,0 -2.8125,0 0,3.75 0,3.75 2.8125,0 2.8125,0 0,7.5 0,7.5 -7.5,0 -7.5,0 0,-5.625 0,-5.625 -0.9375,0 -0.9375,0 0,6.5625 0,6.5625 2.8125,0 2.8125,0 0,2.8125 0,2.8125 2.8125,0 2.8125,0 0,4.6875 0,4.6875 -2.8125,0 -2.8125,0 0,0.9375 0,0.9375 3.75,0 3.75,0 0,-5.625 0,-5.625 7.5,0 7.5,0 0,2.8125 0,2.8125 0.9375,0 0.9375,0 0,-2.8125 0,-2.8125 4.6875,0 4.6875,0 0,2.8125 0,2.8125 0.9375,0 0.9375,0 0,-5.625 0,-5.625 5.625,0 5.625,0 0,-2.8125 0,-2.8125 2.8125,0 2.8125,0 0,-0.9375 0,-0.9375 -3.75,0 -3.75,0 0,2.8125 0,2.8125 -7.5,0 -7.5,0 0,-2.8125 0,-2.8125 -3.75,0 -3.75,0 0,0.9375 0,0.9375 2.8125,0 2.8125,0 0,2.8125 0,2.8125 2.8125,0 2.8125,0 0,1.875 0,1.875 -15.9375,0 -15.9375,0 0,-1.875 0,-1.875 5.625,0 5.625,0 0,-9.375 0,-9.375 -2.8125,0 -2.8125,0 0,-1.875 0,-1.875 2.8125,0 2.8125,0 0,-2.8125 0,-2.8125 1.875,0 1.875,0 0,2.8125 0,2.8125 6.5625,0 6.5625,0 0,-5.625 0,-5.625 1.875,0 1.875,0 0,8.4375 0,8.4375 2.8125,0 2.8125,0 0,4.6875 0,4.6875 -1.875,0 -1.875,0 0,-2.8125 0,-2.8125 -8.4375,0 -8.4375,0 0,-1.875 0,-1.875 5.625,0 5.625,0 0,-0.9375 0,-0.9375 -6.5625,0 -6.5625,0 0,9.375 0,9.375 3.75,0 3.75,0 0,-0.9375 0,-0.9375 -2.8125,0 -2.8125,0 0,-4.6875 0,-4.6875 7.5,0 7.5,0 0,2.8125 0,2.8125 3.75,0 3.75,0 0,-2.8125 0,-2.8125 13.125,0 13.125,0 0,1.875 0,1.875 -2.8125,0 -2.8125,0 0,5.625 0,5.625 -2.8125,0 -2.8125,0 0,2.8125 0,2.8125 -2.8125,0 -2.8125,0 0,0.9375 0,0.9375 3.75,0 3.75,0 0,-2.8125 0,-2.8125 1.875,0 1.875,0 0,10.3125 0,10.3125 -4.6875,0 -4.6875,0 0,-2.8125 0,-2.8125 -9.375,0 -9.375,0 0,5.625 0,5.625 -5.625,0 -5.625,0 0,2.8125 0,2.8125 -2.8125,0 -2.8125,0 0,0.9375 0,0.9375 2.8125,0 2.8125,0 0,7.5 0,7.5 -2.8125,0 -2.8125,0 0,2.8125 0,2.8125 -4.6875,0 -4.6875,0 0,-2.8125 0,-2.8125 -3.75,0 -3.75,0 0,8.4375 0,8.4375 -10.3125,0 -10.3125,0 0,-2.8125 0,-2.8125 -2.8125,0 -2.8125,0 0,-2.8125 0,-2.8125 -2.8125,0 -2.8125,0 0,-2.8125 0,-2.8125 -2.8125,0 -2.8125,0 0,-7.5 0,-7.5 4.6875,0 4.6875,0 0,2.8125 0,2.8125 3.75,0 3.75,0 0,-2.8125 0,-2.8125 5.625,0 5.625,0 0,-0.9375 0,-0.9375 -2.8125,0 -2.8125,0 0,-4.6875 0,-4.6875 2.8125,0 2.8125,0 0,-0.9375 0,-0.9375 -8.4375,0 -8.4375,0 0,-7.5 0,-7.5 5.625,0 5.625,0 0,-0.9375 0,-0.9375 -2.8125,0 -2.8125,0 0,-4.6875 0,-4.6875 2.8125,0 2.8125,0 0,-3.75 0,-3.75 -0.9375,0 -0.9375,0 0,2.8125 0,2.8125 -2.8125,0 -2.8125,0 0,5.625 0,5.625 -7.5,0 -7.5,0 0,-2.8125 0,-2.8125 -3.75,0 -3.75,0 0,2.8125 0,2.8125 -5.625,0 -5.625,0 0,5.625 0,5.625 -8.4375,0 -8.4375,0 0,0.9375 0,0.9375 5.625,0 5.625,0 0,4.6875 0,4.6875 -2.8125,0 -2.8125,0 0,0.9375 0,0.9375 2.8125,0 2.8125,0 0,7.5 0,7.5 -4.6875,0 -4.6875,0 0,-2.8125 0,-2.8125 -2.8125,0 -2.8125,0 0,-2.8125 0,-2.8125 -6.5625,0 -6.5625,0 0,0.9375 0,0.9375 5.625,0 5.625,0 0,2.8125 0,2.8125 2.8125,0 2.8125,0 0,10.3125 0,10.3125 -7.5,0 -7.5,0 0,-2.8125 0,-2.8125 -5.625,0 -5.625,0 0,-5.625 0,-5.625 -0.9375,0 -0.9375,0 0,6.5625 0,6.5625 2.8125,0 2.8125,0 0,4.6875 0,4.6875 -5.625,0 -5.625,0 0,0.9375 0,0.9375 16.875,0 16.875,0 0,2.8125 0,2.8125 0.9375,0 0.9375,0 0,-3.75 0,-3.75 -11.25,0 -11.25,0 0,-4.6875 0,-4.6875 1.875,0 1.875,0 0,2.8125 0,2.8125 9.375,0 9.375,0 0,-5.625 0,-5.625 4.6875,0 4.6875,0 0,2.8125 0,2.8125 5.625,0 5.625,0 0,2.8125 0,2.8125 2.8125,0 2.8125,0 0,2.8125 0,2.8125 0.9375,0 0.9375,0 0,-2.8125 0,-2.8125 2.8125,0 2.8125,0 0,-3.75 0,-3.75 -0.9375,0 -0.9375,0 0,2.8125 0,2.8125 -4.6875,0 -4.6875,0 0,-2.8125 0,-2.8125 -2.8125,0 -2.8125,0 0,-2.8125 0,-2.8125 -0.9375,0 -0.9375,0 0,2.8125 0,2.8125 -1.875,0 -1.875,0 0,-2.8125 0,-2.8125 -5.625,0 -5.625,0 0,-1.875 0,-1.875 5.625,0 5.625,0 0,-14.0625 0,-14.0625 2.8125,0 2.8125,0 0,-5.625 0,-5.625 4.6875,0 4.6875,0 0,2.8125 0,2.8125 0.9375,0 0.9375,0 0,-5.625 0,-5.625 1.875,0 1.875,0 0,2.8125 0,2.8125 2.8125,0 2.8125,0 0,2.8125 0,2.8125 0.9375,0 0.9375,0 0,-2.8125 0,-2.8125 1.875,0 1.875,0 0,7.5 0,7.5 -2.8125,0 -2.8125,0 0,3.75 0,3.75 6.5625,0 6.5625,0 0,-0.9375 0,-0.9375 -5.625,0 -5.625,0 0,-1.875 0,-1.875 7.5,0 7.5,0 0,4.6875 0,4.6875 -2.8125,0 -2.8125,0 0,2.8125 0,2.8125 -1.875,0 -1.875,0 0,-2.8125 0,-2.8125 -6.5625,0 -6.5625,0 0,8.4375 0,8.4375 -4.6875,0 -4.6875,0 0,-5.625 0,-5.625 -0.9375,0 -0.9375,0 0,2.8125 0,2.8125 -1.875,0 -1.875,0 0,-7.5 0,-7.5 2.8125,0 2.8125,0 0,-0.9375 0,-0.9375 -2.8125,0 -2.8125,0 0,-1.875 0,-1.875 2.8125,0 2.8125,0 0,-2.8125 0,-2.8125 4.6875,0 4.6875,0 0,4.6875 0,4.6875 -1.875,0 -1.875,0 0,-2.8125 0,-2.8125 -0.9375,0 -0.9375,0 0,5.625 0,5.625 -2.8125,0 -2.8125,0 0,0.9375 0,0.9375 2.8125,0 2.8125,0 0,5.625 0,5.625 0.9375,0 0.9375,0 0,-8.4375 0,-8.4375 2.8125,0 2.8125,0 0,-5.625 0,-5.625 2.8125,0 2.8125,0 0,-0.9375 0,-0.9375 -2.8125,0 -2.8125,0 0,-2.8125 0,-2.8125 -0.9375,0 -0.9375,0 0,2.8125 0,2.8125 -4.6875,0 -4.6875,0 0,-2.8125 0,-2.8125 -0.9375,0 -0.9375,0 0,5.625 0,5.625 -2.8125,0 -2.8125,0 0,12.1875 0,12.1875 2.8125,0 2.8125,0 0,2.8125 0,2.8125 2.8125,0 2.8125,0 0,2.8125 0,2.8125 0.9375,0 0.9375,0 0,-2.8125 0,-2.8125 4.6875,0 4.6875,0 0,2.8125 0,2.8125 2.8125,0 2.8125,0 0,5.625 0,5.625 0.9375,0 0.9375,0 0,-2.8125 0,-2.8125 1.875,0 1.875,0 0,2.8125 0,2.8125 2.8125,0 2.8125,0 0,7.5 0,7.5 -8.4375,0 -8.4375,0 0,3.75 0,3.75 2.8125,0 2.8125,0 0,4.6875 0,4.6875 -5.625,0 -5.625,0 0,5.625 0,5.625 -4.6875,0 -4.6875,0 0,-2.8125 0,-2.8125 -11.25,0 -11.25,0 0,-2.8125 0,-2.8125 -0.9375,0 -0.9375,0 0,2.8125 0,2.8125 -2.8125,0 -2.8125,0 0,2.8125 0,2.8125 -4.6875,0 -4.6875,0 0,-8.4375 0,-8.4375 -3.75,0 -3.75,0 0,0.9375 0,0.9375 2.8125,0 2.8125,0 0,4.6875 0,4.6875 -7.5,0 -7.5,0 0,-2.8125 0,-2.8125 -2.8125,0 -2.8125,0 0,-8.4375 0,-8.4375 -0.9375,0 -0.9375,0 0,11.25 0,11.25 -5.625,0 -5.625,0 0,0.9375 0,0.9375 2.8125,0 2.8125,0 0,5.625 0,5.625 2.8125,0 2.8125,0 0,5.625 0,5.625 2.8125,0 2.8125,0 0,2.8125 0,2.8125 6.5625,0 6.5625,0 0,-2.8125 0,-2.8125 7.5,0 7.5,0 0,2.8125 0,2.8125 0.9375,0 0.9375,0 0,-2.8125 0,-2.8125 7.5,0 7.5,0 0,2.8125 0,2.8125 5.625,0 5.625,0 0,4.6875 0,4.6875 -5.625,0 -5.625,0 0,3.75 0,3.75 0.9375,0 0.9375,0 0,-2.8125 0,-2.8125 7.5,0 7.5,0 0,2.8125 0,2.8125 0.9375,0 0.9375,0 0,-2.8125 0,-2.8125 4.6875,0 4.6875,0 0,2.8125 0,2.8125 3.75,0 3.75,0 0,-0.9375 0,-0.9375 -2.8125,0 -2.8125,0 0,-2.8125 0,-2.8125 -8.4375,0 -8.4375,0 0,-4.6875 0,-4.6875 5.625,0 5.625,0 0,-0.9375 0,-0.9375 -2.8125,0 -2.8125,0 0,-4.6875 0,-4.6875 2.8125,0 2.8125,0 0,-2.8125 0,-2.8125 4.6875,0 4.6875,0 0,2.8125 0,2.8125 5.625,0 5.625,0 0,8.4375 0,8.4375 0.9375,0 0.9375,0 0,-14.0625 0,-14.0625 2.8125,0 2.8125,0 0,-0.9375 0,-0.9375 -6.5625,0 -6.5625,0 0,3.75 0,3.75 0.9375,0 0.9375,0 0,-2.8125 0,-2.8125 1.875,0 1.875,0 0,4.6875 0,4.6875 -4.6875,0 -4.6875,0 0,-2.8125 0,-2.8125 -9.375,0 -9.375,0 0,0.9375 0,0.9375 2.8125,0 2.8125,0 0,1.875 0,1.875 -5.625,0 -5.625,0 0,2.8125 0,2.8125 -2.8125,0 -2.8125,0 0,0.9375 0,0.9375 3.75,0 3.75,0 0,-2.8125 0,-2.8125 1.875,0 1.875,0 0,4.6875 0,4.6875 -7.5,0 -7.5,0 0,-2.8125 0,-2.8125 -5.625,0 -5.625,0 0,-2.8125 0,-2.8125 -16.875,0 -16.875,0 0,-5.625 0,-5.625 -3.75,0 -3.75,0 0,0.9375 0,0.9375 2.8125,0 2.8125,0 0,5.625 0,5.625 2.8125,0 2.8125,0 0,2.8125 0,2.8125 0.9375,0 0.9375,0 0,-2.8125 0,-2.8125 13.125,0 13.125,0 0,1.875 0,1.875 -11.25,0 -11.25,0 0,2.8125 0,2.8125 -4.6875,0 -4.6875,0 0,-2.8125 0,-2.8125 -2.8125,0 -2.8125,0 0,-5.625 0,-5.625 -2.8125,0 -2.8125,0 0,-4.6875 0,-4.6875 2.8125,0 2.8125,0 0,-2.8125 0,-2.8125 1.875,0 1.875,0 0,2.8125 0,2.8125 8.4375,0 8.4375,0 0,2.8125 0,2.8125 9.375,0 9.375,0 0,-0.9375 0,-0.9375 -2.8125,0 -2.8125,0 0,-1.875 0,-1.875 10.3125,0 10.3125,0 0,2.8125 0,2.8125 0.9375,0 0.9375,0 0,-2.8125 0,-2.8125 1.875,0 1.875,0 0,4.6875 0,4.6875 -2.8125,0 -2.8125,0 0,2.8125 0,2.8125 -4.6875,0 -4.6875,0 0,-4.6875 0,-4.6875 1.875,0 1.875,0 0,2.8125 0,2.8125 0.9375,0 0.9375,0 0,-3.75 0,-3.75 -3.75,0 -3.75,0 0,2.8125 0,2.8125 -15.9375,0 -15.9375,0 0,-1.875 0,-1.875 2.8125,0 2.8125,0 0,-0.9375 0,-0.9375 -3.75,0 -3.75,0 0,3.75 0,3.75 16.875,0 16.875,0 0,2.8125 0,2.8125 6.5625,0 6.5625,0 0,-2.8125 0,-2.8125 2.8125,0 2.8125,0 0,-2.8125 0,-2.8125 5.625,0 5.625,0 0,-5.625 0,-5.625 8.4375,0 8.4375,0 0,-6.5625 0,-6.5625 -0.9375,0 -0.9375,0 0,5.625 0,5.625 -1.875,0 -1.875,0 0,-5.625 0,-5.625 -2.8125,0 -2.8125,0 0,-1.875 0,-1.875 10.3125,0 10.3125,0 0,5.625 0,5.625 0.9375,0 0.9375,0 0,-11.25 0,-11.25 4.6875,0 4.6875,0 0,2.8125 0,2.8125 6.5625,0 6.5625,0 0,-2.8125 0,-2.8125 2.8125,0 2.8125,0 0,-0.9375 0,-0.9375 -5.625,0 -5.625,0 0,-4.6875 0,-4.6875 5.625,0 5.625,0 0,-0.9375 0,-0.9375 -6.5625,0 -6.5625,0 0,6.5625 0,6.5625 2.8125,0 2.8125,0 0,1.875 0,1.875 -4.6875,0 -4.6875,0 0,-2.8125 0,-2.8125 -6.5625,0 -6.5625,0 0,5.625 0,5.625 -1.875,0 -1.875,0 0,-7.5 0,-7.5 8.4375,0 8.4375,0 0,-8.4375 0,-8.4375 1.875,0 1.875,0 0,2.8125 0,2.8125 15,0 15,0 0,-3.75 0,-3.75 -2.8125,0 -2.8125,0 0,-4.6875 0,-4.6875 2.8125,0 2.8125,0 0,-3.75 0,-3.75 -0.9375,0 -0.9375,0 0,2.8125 0,2.8125 -2.8125,0 -2.8125,0 0,6.5625 0,6.5625 2.8125,0 2.8125,0 0,1.875 0,1.875 -7.5,0 -7.5,0 0,-1.875 0,-1.875 2.8125,0 2.8125,0 0,-11.25 0,-11.25 1.875,0 1.875,0 0,2.8125 0,2.8125 0.9375,0 0.9375,0 0,-2.8125 0,-2.8125 2.8125,0 2.8125,0 0,-5.625 0,-5.625 7.5,0 7.5,0 0,4.6875 0,4.6875 -2.8125,0 -2.8125,0 0,3.75 0,3.75 2.8125,0 2.8125,0 0,4.6875 0,4.6875 -2.8125,0 -2.8125,0 0,6.5625 0,6.5625 0.9375,0 0.9375,0 0,-5.625 0,-5.625 2.8125,0 2.8125,0 0,-6.5625 0,-6.5625 -2.8125,0 -2.8125,0 0,-1.875 0,-1.875 5.625,0 5.625,0 0,-0.9375 0,-0.9375 -2.8125,0 -2.8125,0 0,-1.875 0,-1.875 4.6875,0 4.6875,0 0,4.6875 0,4.6875 -2.8125,0 -2.8125,0 0,8.4375 0,8.4375 -2.8125,0 -2.8125,0 0,5.625 0,5.625 -2.8125,0 -2.8125,0 0,2.8125 0,2.8125 -5.625,0 -5.625,0 0,0.9375 0,0.9375 5.625,0 5.625,0 0,1.875 0,1.875 -2.8125,0 -2.8125,0 0,2.8125 0,2.8125 -5.625,0 -5.625,0 0,0.9375 0,0.9375 2.8125,0 2.8125,0 0,1.875 0,1.875 -2.8125,0 -2.8125,0 0,2.8125 0,2.8125 -5.625,0 -5.625,0 0,0.9375 0,0.9375 5.625,0 5.625,0 0,1.875 0,1.875 -2.8125,0 -2.8125,0 0,2.8125 0,2.8125 -2.8125,0 -2.8125,0 0,0.9375 0,0.9375 2.8125,0 2.8125,0 0,7.5 0,7.5 -4.6875,0 -4.6875,0 0,-2.8125 0,-2.8125 -0.9375,0 -0.9375,0 0,2.8125 0,2.8125 -2.8125,0 -2.8125,0 0,2.8125 0,2.8125 -2.8125,0 -2.8125,0 0,3.75 0,3.75 5.625,0 5.625,0 0,4.6875 0,4.6875 -5.625,0 -5.625,0 0,0.9375 0,0.9375 8.4375,0 8.4375,0 0,7.5 0,7.5 -5.625,0 -5.625,0 0,0.9375 0,0.9375 5.625,0 5.625,0 0,4.6875 0,4.6875 -2.8125,0 -2.8125,0 0,3.75 0,3.75 2.8125,0 2.8125,0 0,2.8125 0,2.8125 0.9375,0 0.9375,0 0,-2.8125 0,-2.8125 4.6875,0 4.6875,0 0,2.8125 0,2.8125 0.9375,0 0.9375,0 0,-3.75 0,-3.75 -2.8125,0 -2.8125,0 0,-2.8125 0,-2.8125 -0.9375,0 -0.9375,0 0,2.8125 0,2.8125 -4.6875,0 -4.6875,0 0,-1.875 0,-1.875 2.8125,0 2.8125,0 0,-15 0,-15 -2.8125,0 -2.8125,0 0,-4.6875 0,-4.6875 2.8125,0 2.8125,0 0,-0.9375 0,-0.9375 -8.4375,0 -8.4375,0 0,-1.875 0,-1.875 2.8125,0 2.8125,0 0,-2.8125 0,-2.8125 7.5,0 7.5,0 0,1.875 0,1.875 -5.625,0 -5.625,0 0,0.9375 0,0.9375 5.625,0 5.625,0 0,4.6875 0,4.6875 -2.8125,0 -2.8125,0 0,0.9375 0,0.9375 2.8125,0 2.8125,0 0,14.0625 0,14.0625 2.8125,0 2.8125,0 0,2.8125 0,2.8125 5.625,0 5.625,0 0,2.8125 0,2.8125 2.8125,0 2.8125,0 0,1.875 0,1.875 -2.8125,0 -2.8125,0 0,2.8125 0,2.8125 -1.875,0 -1.875,0 0,-5.625 0,-5.625 -0.9375,0 -0.9375,0 0,5.625 0,5.625 -4.6875,0 -4.6875,0 0,-2.8125 0,-2.8125 -0.9375,0 -0.9375,0 0,2.8125 0,2.8125 -4.6875,0 -4.6875,0 0,-2.8125 0,-2.8125 -2.8125,0 -2.8125,0 0,-5.625 0,-5.625 -2.8125,0 -2.8125,0 0,-1.875 0,-1.875 5.625,0 5.625,0 0,-0.9375 0,-0.9375 -5.625,0 -5.625,0 0,-7.5 0,-7.5 4.6875,0 4.6875,0 0,1.875 0,1.875 -2.8125,0 -2.8125,0 0,0.9375 0,0.9375 3.75,0 3.75,0 0,-3.75 0,-3.75 -8.4375,0 -8.4375,0 0,-4.6875 0,-4.6875 5.625,0 5.625,0 0,-0.9375 0,-0.9375 -5.625,0 -5.625,0 0,-14.0625 0,-14.0625 -5.625,0 -5.625,0 0,-1.875 0,-1.875 5.625,0 5.625,0 0,-5.625 0,-5.625 5.625,0 5.625,0 0,-0.9375 0,-0.9375 -5.625,0 -5.625,0 0,-1.875 0,-1.875 7.5,0 7.5,0 0,10.3125 0,10.3125 -2.8125,0 -2.8125,0 0,2.8125 0,2.8125 -1.875,0 -1.875,0 0,-7.5 0,-7.5 1.875,0 1.875,0 0,2.8125 0,2.8125 0.9375,0 0.9375,0 0,-3.75 0,-3.75 -3.75,0 -3.75,0 0,12.1875 0,12.1875 0.9375,0 0.9375,0 0,-2.8125 0,-2.8125 2.8125,0 2.8125,0 0,-2.8125 0,-2.8125 4.6875,0 4.6875,0 0,2.8125 0,2.8125 0.9375,0 0.9375,0 0,-3.75 0,-3.75 -2.8125,0 -2.8125,0 0,-4.6875 0,-4.6875 2.8125,0 2.8125,0 0,-0.9375 0,-0.9375 -2.8125,0 -2.8125,0 0,-4.6875 0,-4.6875 2.8125,0 2.8125,0 0,-2.8125 0,-2.8125 1.875,0 1.875,0 0,2.8125 0,2.8125 0.9375,0 0.9375,0 0,-11.25 0,-11.25 1.875,0 1.875,0 0,5.625 0,5.625 3.75,0 3.75,0 0,-0.9375 0,-0.9375 -2.8125,0 -2.8125,0 0,-4.6875 0,-4.6875 5.625,0 5.625,0 0,-11.25 0,-11.25 2.8125,0 2.8125,0 0,-0.9375 0,-0.9375 -2.8125,0 -2.8125,0 0,-7.5 0,-7.5 2.8125,0 2.8125,0 0,-0.9375 0,-0.9375 -3.75,0 -3.75,0 0,11.25 0,11.25 -2.8125,0 -2.8125,0 0,0.9375 0,0.9375 2.8125,0 2.8125,0 0,7.5 0,7.5 -8.4375,0 -8.4375,0 0,2.8125 0,2.8125 -5.625,0 -5.625,0 0,0.9375 0,0.9375 5.625,0 5.625,0 0,4.6875 0,4.6875 -2.8125,0 -2.8125,0 0,2.8125 0,2.8125 -10.3125,0 -10.3125,0 0,-2.8125 0,-2.8125 -0.9375,0 -0.9375,0 0,11.25 0,11.25 -4.6875,0 -4.6875,0 0,-5.625 0,-5.625 -0.9375,0 -0.9375,0 0,8.4375 0,8.4375 -5.625,0 -5.625,0 0,2.8125 0,2.8125 -1.875,0 -1.875,0 0,-2.8125 0,-2.8125 -0.9375,0 -0.9375,0 0,3.75 0,3.75 3.75,0 3.75,0 0,-2.8125 0,-2.8125 10.3125,0 10.3125,0 0,4.6875 0,4.6875 -2.8125,0 -2.8125,0 0,16.875 0,16.875 -2.8125,0 -2.8125,0 0,5.625 0,5.625 -5.625,0 -5.625,0 0,0.9375 0,0.9375 2.8125,0 2.8125,0 0,1.875 0,1.875 -7.5,0 -7.5,0 0,-2.8125 0,-2.8125 -22.5,0 -22.5,0 0,-8.4375 0,-8.4375 -3.75,0 -3.75,0 0,5.625 0,5.625 -10.3125,0 -10.3125,0 0,-2.8125 0,-2.8125 -0.9375,0 -0.9375,0 0,8.4375 0,8.4375 -2.8125,0 -2.8125,0 0,5.625 0,5.625 -2.8125,0 -2.8125,0 0,2.8125 0,2.8125 -2.8125,0 -2.8125,0 0,2.8125 0,2.8125 -8.4375,0 -8.4375,0 0,2.8125 0,2.8125 -4.6875,0 -4.6875,0 0,-5.625 0,-5.625 -3.75,0 -3.75,0 0,0.9375 0,0.9375 2.8125,0 2.8125,0 0,5.625 0,5.625 6.5625,0 6.5625,0 0,-2.8125 0,-2.8125 11.25,0 11.25,0 0,-0.9375 0,-0.9375 -2.8125,0 -2.8125,0 0,-1.875 0,-1.875 2.8125,0 2.8125,0 0,-2.8125 0,-2.8125 5.625,0 5.625,0 0,-2.8125 0,-2.8125 2.8125,0 2.8125,0 0,-2.8125 0,-2.8125 2.8125,0 2.8125,0 0,-3.75 0,-3.75 -3.75,0 -3.75,0 0,0.9375 0,0.9375 2.8125,0 2.8125,0 0,1.875 0,1.875 -2.8125,0 -2.8125,0 0,2.8125 0,2.8125 -2.8125,0 -2.8125,0 0,2.8125 0,2.8125 -1.875,0 -1.875,0 0,-4.6875 0,-4.6875 2.8125,0 2.8125,0 0,-5.625 0,-5.625 10.3125,0 10.3125,0 0,5.625 0,5.625 2.8125,0 2.8125,0 0,4.6875 0,4.6875 -5.625,0 -5.625,0 0,2.8125 0,2.8125 -2.8125,0 -2.8125,0 0,0.9375 0,0.9375 2.8125,0 2.8125,0 0,2.8125 0,2.8125 3.75,0 3.75,0 0,-3.75 0,-3.75 -0.9375,0 -0.9375,0 0,2.8125 0,2.8125 -1.875,0 -1.875,0 0,-4.6875 0,-4.6875 10.3125,0 10.3125,0 0,2.8125 0,2.8125 3.75,0 3.75,0 0,-2.8125 0,-2.8125 7.5,0 7.5,0 0,4.6875 0,4.6875 -2.8125,0 -2.8125,0 0,0.9375 0,0.9375 3.75,0 3.75,0 0,-2.8125 0,-2.8125 5.625,0 5.625,0 0,-5.625 0,-5.625 2.8125,0 2.8125,0 0,-0.9375 0,-0.9375 -3.75,0 -3.75,0 0,5.625 0,5.625 -4.6875,0 -4.6875,0 0,-5.625 0,-5.625 -2.8125,0 -2.8125,0 0,-2.8125 0,-2.8125 -3.75,0 -3.75,0 0,2.8125 0,2.8125 -4.6875,0 -4.6875,0 0,-2.8125 0,-2.8125 -3.75,0 -3.75,0 0,0.9375 0,0.9375 2.8125,0 2.8125,0 0,2.8125 0,2.8125 6.5625,0 6.5625,0 0,-2.8125 0,-2.8125 1.875,0 1.875,0 0,2.8125 0,2.8125 2.8125,0 2.8125,0 0,1.875 0,1.875 -8.4375,0 -8.4375,0 0,2.8125 0,2.8125 -1.875,0 -1.875,0 0,-2.8125 0,-2.8125 -5.625,0 -5.625,0 0,-1.875 0,-1.875 2.8125,0 2.8125,0 0,-0.9375 0,-0.9375 -2.8125,0 -2.8125,0 0,-2.8125 0,-2.8125 -2.8125,0 -2.8125,0 0,-10.3125 0,-10.3125 1.875,0 1.875,0 0,8.4375 0,8.4375 8.4375,0 8.4375,0 0,2.8125 0,2.8125 0.9375,0 0.9375,0 0,-2.8125 0,-2.8125 13.125,0 13.125,0 0,1.875 0,1.875 -5.625,0 -5.625,0 0,0.9375 0,0.9375 2.8125,0 2.8125,0 0,5.625 0,5.625 0.9375,0 0.9375,0 0,-5.625 0,-5.625 7.5,0 7.5,0 0,2.8125 0,2.8125 2.8125,0 2.8125,0 0,2.8125 0,2.8125 0.9375,0 0.9375,0 0,-2.8125 0,-2.8125 1.875,0 1.875,0 0,4.6875 0,4.6875 -5.625,0 -5.625,0 0,2.8125 0,2.8125 -1.875,0 -1.875,0 0,-4.6875 0,-4.6875 2.8125,0 2.8125,0 0,-0.9375 0,-0.9375 -3.75,0 -3.75,0 0,5.625 0,5.625 -5.625,0 -5.625,0 0,2.8125 0,2.8125 -10.3125,0 -10.3125,0 0,-1.875 0,-1.875 2.8125,0 2.8125,0 0,-2.8125 0,-2.8125 2.8125,0 2.8125,0 0,-0.9375 0,-0.9375 -3.75,0 -3.75,0 0,2.8125 0,2.8125 -8.4375,0 -8.4375,0 0,2.8125 0,2.8125 -1.875,0 -1.875,0 0,-4.6875 0,-4.6875 2.8125,0 2.8125,0 0,-0.9375 0,-0.9375 -3.75,0 -3.75,0 0,5.625 0,5.625 -15.9375,0 -15.9375,0 0,-4.6875 0,-4.6875 4.6875,0 4.6875,0 0,1.875 0,1.875 -2.8125,0 -2.8125,0 0,0.9375 0,0.9375 6.5625,0 6.5625,0 0,-0.9375 0,-0.9375 -2.8125,0 -2.8125,0 0,-4.6875 0,-4.6875 2.8125,0 2.8125,0 0,-2.8125 0,-2.8125 5.625,0 5.625,0 0,-0.9375 0,-0.9375 -2.8125,0 -2.8125,0 0,-5.625 0,-5.625 -0.9375,0 -0.9375,0 0,5.625 0,5.625 -2.8125,0 -2.8125,0 0,2.8125 0,2.8125 -2.8125,0 -2.8125,0 0,2.8125 0,2.8125 -5.625,0 -5.625,0 0,5.625 0,5.625 -2.8125,0 -2.8125,0 0,2.8125 0,2.8125 -7.5,0 -7.5,0 0,-1.875 0,-1.875 5.625,0 5.625,0 0,-0.9375 0,-0.9375 -6.5625,0 -6.5625,0 0,2.8125 0,2.8125 -15.9375,0 -15.9375,0 0,-2.8125 0,-2.8125 -0.9375,0 -0.9375,0 0,2.8125 0,2.8125 -1.875,0 -1.875,0 0,-8.4375 z"
     id="path3346"
     inkscape:connector-curvature="0" />
</svg>
