<svg xmlns="http://www.w3.org/2000/svg" enable-background="new 0 0 512 512" viewBox="0 0 512 512" id="currency"><path fill="#eda900" d="M175,7h-50C58.7,7,5,60.7,5,127s53.7,120,120,120h50c66.3,0,120-53.7,120-120
				S241.3,7,175,7z"></path><path fill="#f8d707" d="M31.3 52H131V42H40.3C37.1 45 34.1 48 31.3 52zM184 12V6.8c-3-.2-6 .2-9 .2h-50c-11.9 0-23.5 1-34.4 5H184zM125 247h50c3 0 6-.6 9-.8V242H90.6C101.5 245 113.1 247 125 247zM10.2 92H82V82H13.7C12.4 85 11.2 88 10.2 92zM5 127c0 1.7 0 3 .1 5H69v-10H5.1C5 123 5 125.3 5 127zM13.7 172H82v-10H10.2C11.2 165 12.4 168 13.7 172zM40.3 212H131v-10H31.3C34.1 205 37.1 208 40.3 212z"></path><path fill="#fffa5a" d="M175,246.5h-18c-66.3,0-120-53.7-120-120v0c0-66.3,53.7-120,120-120h18
				c66.3,0,120,53.7,120,120v0C295,192.8,241.3,246.5,175,246.5z"></path><circle cx="175" cy="126.5" r="120" fill="#f8d707"></circle><path fill="#eda900" d="M191,194.5c0,17.5,3.7,34.1,10.5,49.1C255,231.5,295,183.7,295,126.5
				c0-17.5-3.7-34.1-10.5-49.1C231,89.5,191,137.3,191,194.5z"></path><circle cx="175" cy="126.5" r="87" fill="#eda900"></circle><path fill="#fffa5a" d="M175,39.5c-3,0-6,0.2-9,0.5c43.8,4.5,78,41.5,78,86.5s-34.2,82-78,86.5c3,0.3,6,0.5,9,0.5
				c48,0,87-39,87-87S223,39.5,175,39.5z"></path><path fill="#fffa5a" d="M215,181.5h-80c-2.1,0-3.9-1.3-4.7-3.2s-0.3-4.1,1.2-5.5c8.5-8,13.4-19.2,13.4-30.9
						v-40.5c0-16.5,13.5-30,30-30s30,13.5,30,30v7h-10v-7c0-11-9-20-20-20s-20,9-20,20V142c0,10.6-3.3,20.9-9.2,29.5H215V181.5z"></path><rect width="40" height="10" x="135" y="122" fill="#fffa5a"></rect><path fill="#f8d707" d="M244,126.5c0,35.8-21.6,66.5-52.4,79.8c0.2,1.8,0.4,3.7,0.7,5.5
				c39.8-8,69.8-43.1,69.8-85.3c0-13.4-3-26.1-8.4-37.4c-5,2.7-9.7,5.8-14.3,9.1C242.3,107.1,244,116.6,244,126.5z"></path><g><path fill="#eda900" d="M387,101h-50c-66.3,0-120,53.7-120,120s53.7,120,120,120h50c66.3,0,120-53.7,120-120
				S453.3,101,387,101z"></path><path fill="#f8d707" d="M243.3 146H343v-10h-90.7C249.1 139 246.1 142 243.3 146zM396 106v-5.2c-3-.2-6 .2-9 .2h-50c-11.9 0-23.5 1-34.4 5H396zM337 341h50c3 0 6-.6 9-.8V336h-93.4C313.5 339 325.1 341 337 341zM222.2 186H294v-10h-68.3C224.4 179 223.2 182 222.2 186zM217 221c0 1.7 0 3 .1 5H281v-10h-63.9C217 217 217 219.3 217 221zM225.7 266H294v-10h-71.8C223.2 259 224.4 262 225.7 266zM252.3 306H343v-10h-99.7C246.1 299 249.1 302 252.3 306z"></path><path fill="#fffa5a" d="M387,340.5h-18c-66.3,0-120-53.7-120-120v0c0-66.3,53.7-120,120-120h18
				c66.3,0,120,53.7,120,120v0C507,286.8,453.3,340.5,387,340.5z"></path><circle cx="387" cy="220.5" r="120" fill="#f8d707"></circle><circle cx="387" cy="220.5" r="87" fill="#eda900"></circle><path fill="#fffa5a" d="M387,133.5c-3,0-6,0.2-9,0.5c43.8,4.5,78,41.5,78,86.5s-34.2,82-78,86.5c3,0.3,6,0.5,9,0.5
				c48,0,87-39,87-87S435,133.5,387,133.5z"></path><rect width="90" height="10" x="322" y="202.5" fill="#fffa5a"></rect><rect width="90" height="10" x="322" y="228.5" fill="#fffa5a"></rect><path fill="#fffa5a" d="M427,275.5h-30c-30.3,0-55-24.7-55-55s24.7-55,55-55h30v10h-30c-24.8,0-45,20.2-45,45
					s20.2,45,45,45h30V275.5z"></path><path fill="#f8d707" d="M353.5,339.5c-13.8-43.9-52.2-77-99-83C268.3,300.4,306.7,333.5,353.5,339.5z"></path><path fill="#eda900" d="M352.1,335.3c-12.7-35.7-41.8-63.6-78.2-74.7C286.6,296.4,315.7,324.3,352.1,335.3z"></path></g><g><path fill="#eda900" d="M229,266h-50c-66.3,0-120,53.7-120,120s53.7,120,120,120h50c66.3,0,120-53.7,120-120
				S295.3,266,229,266z"></path><path fill="#f8d707" d="M85.3 311H185v-10H94.3C91.1 304 88.1 307 85.3 311zM238 271v-5.2c-3-.2-6 .2-9 .2h-50c-11.9 0-23.5 1-34.4 5H238zM179 506h50c3 0 6-.6 9-.8V501h-93.4C155.5 504 167.1 506 179 506zM64.2 351H136v-10H67.7C66.4 344 65.2 347 64.2 351zM59 386c0 1.7 0 3 .1 5H123v-10H59.1C59 382 59 384.3 59 386zM67.7 431H136v-10H64.2C65.2 424 66.4 427 67.7 431zM94.3 471H185v-10H85.3C88.1 464 91.1 467 94.3 471z"></path><path fill="#fffa5a" d="M229,505.5h-18c-66.3,0-120-53.7-120-120v0c0-66.3,53.7-120,120-120h18
				c66.3,0,120,53.7,120,120v0C349,451.8,295.3,505.5,229,505.5z"></path><circle cx="229" cy="385.5" r="120" fill="#f8d707"></circle><circle cx="229" cy="385.5" r="87" fill="#eda900"></circle><path fill="#fffa5a" d="M229,298.5c-3,0-6,0.2-9,0.5c43.8,4.5,78,41.5,78,86.5s-34.2,82-78,86.5c3,0.3,6,0.5,9,0.5
				c48,0,87-39,87-87S277,298.5,229,298.5z"></path><path fill="#fffa5a" d="M249,430.5h-60v-10h60c8.3,0,15-6.7,15-15s-6.7-15-15-15h-40c-13.8,0-25-11.2-25-25
					s11.2-25,25-25h60v10h-60c-8.3,0-15,6.7-15,15s6.7,15,15,15h40c13.8,0,25,11.2,25,25S262.8,430.5,249,430.5z"></path><rect width="10" height="130" x="224" y="320.5" fill="#fffa5a"></rect></g></svg>