<svg xmlns="http://www.w3.org/2000/svg" viewBox="0 0 100 100" id="WorryCat"><g fill="none" fill-rule="evenodd" transform="translate(-627 -168)"><g fill="#d8a353" fill-rule="nonzero" transform="translate(627 168)" class="color000000 svgShape"><path d="M72.8441235,36.5870324 C73.2392836,36.2011996 73.8724034,36.2087608 74.2582362,36.6039209 C76.8647227,39.2734173 78.7873582,42.4700331 79.9299589,46.1769304 C84.8454001,62.1239151 74.5567008,73 50,73 C25.4432992,73 15.1545999,62.1239151 20.0700411,46.1769304 C21.192392,42.5357287 23.0675024,39.3865755 25.6046851,36.7454586 C25.9872941,36.3471763 26.6203316,36.3344705 27.0186139,36.7170795 C27.4168962,37.0996885 27.429602,37.732726 27.046993,38.1310083 C24.7238951,40.5492704 23.0106576,43.4265664 21.9813066,46.766052 C17.5022967,61.2971388 26.6811346,71 50,71 C73.3188654,71 82.4977033,61.2971388 78.0186934,46.766052 C76.9707899,43.3663773 75.2141698,40.4457823 72.8272351,38.0011452 C72.4414022,37.6059851 72.4489635,36.9728653 72.8441235,36.5870324 Z" fill="#d8a353" class="color000000 svgShape"></path><path d="M84.8759653 52.0077221C85.4239852 51.9392196 85.9237754 52.3279453 85.9922779 52.8759653 86.0558873 53.3848409 85.7252541 53.8521307 85.2389208 53.971137L85.1240347 53.9922779 77.1240347 54.9922779C76.5760148 55.0607804 76.0762246 54.6720547 76.0077221 54.1240347 75.9441127 53.6151591 76.2747459 53.1478693 76.7610792 53.028863L76.8759653 53.0077221 84.8759653 52.0077221zM76.0384761 57.7252789C76.1793629 57.2321749 76.6666665 56.9318197 77.1607389 57.0129066L77.2747211 57.0384761 84.2747211 59.0384761C84.8057561 59.1902003 85.1132482 59.7436861 84.9615239 60.2747211 84.8206371 60.7678251 84.3333335 61.0681803 83.8392611 60.9870934L83.7252789 60.9615239 76.7252789 58.9615239C76.1942439 58.8097997 75.8867518 58.2563139 76.0384761 57.7252789z" fill="#d8a353" class="color000000 svgShape"></path><path d="M22.6046058,52.0082582 C23.1523297,51.9374274 23.6537673,52.3240257 23.724598,52.8717496 C23.7903694,53.3803504 23.461725,53.849041 22.9759018,53.9701129 L22.8611066,53.9917418 L15.1282504,54.9917418 C14.5805265,55.0625726 14.0790889,54.6759743 14.0082582,54.1282504 C13.9424868,53.6196496 14.2711312,53.150959 14.7569544,53.0298871 L14.8717496,53.0082582 L22.6046058,52.0082582 Z" transform="matrix(-1 0 0 1 37.733 0)" fill="#d8a353" class="color000000 svgShape"></path><path d="M14.7742553,57.7152469 C14.9202869,57.223642 15.4107023,56.928395 15.9039004,57.0146401 L16.0176093,57.0413991 L22.7504655,59.0413991 C23.2798861,59.1986639 23.5815781,59.7553325 23.4243133,60.2847531 C23.2782817,60.776358 22.7878662,61.071605 22.2946681,60.9853599 L22.1809593,60.9586009 L15.4481031,58.9586009 C14.9186824,58.8013361 14.6169905,58.2446675 14.7742553,57.7152469 Z" transform="matrix(-1 0 0 1 38.199 0)" fill="#d8a353" class="color000000 svgShape"></path><path d="M69.8567928,19.0103073 C70.2237946,18.9572026 70.5900499,19.1115454 70.8083531,19.4113021 C74.319444,24.2324525 75.358097,31.1568062 73.9886044,40.1505367 C73.9054653,40.6965278 73.3954545,41.0717435 72.8494633,40.9886044 C72.3034722,40.9054653 71.9282565,40.3954545 72.0113956,39.8494633 C73.2521708,31.7010456 72.4265487,25.4829743 69.5907948,21.1656458 L69.54,21.091 L69.4471801,21.1093098 C65.4215022,21.9124227 61.9987943,24.5603789 59.1563326,29.1200543 L58.9141135,29.5155669 C58.6924028,29.8840403 58.259945,30.0695086 57.8401683,29.9761503 C54.9099167,29.3244623 52.2956382,29 50,29 C47.7043618,29 45.0900833,29.3244623 42.1598317,29.9761503 C41.740055,30.0695086 41.3075972,29.8840403 41.0858865,29.5155669 C38.2788565,24.8504073 34.8931754,22.0957545 30.9061752,21.1848964 L30.459,21.091 L30.4092052,21.1656458 C27.6379003,25.3848532 26.7863958,31.4193878 27.9072075,39.2968803 L27.9886044,39.8494633 C28.0717435,40.3954545 27.6965278,40.9054653 27.1505367,40.9886044 C26.6045455,41.0717435 26.0945347,40.6965278 26.0113956,40.1505367 C24.641903,31.1568062 25.680556,24.2324525 29.1916469,19.4113021 C29.4099501,19.1115454 29.7762054,18.9572026 30.1432072,19.0103073 C34.9826506,19.710568 39.0447343,22.627996 42.3044278,27.688927 L42.421,27.873 L43.0203586,27.7525061 C45.3594976,27.293173 47.5089013,27.0436364 49.4698633,27.0052368 L50,27 C52.1018661,27 54.4278534,27.2514154 56.9796414,27.7525061 L57.578,27.873 L57.6955722,27.688927 C60.8716838,22.7577635 64.809565,19.8615889 69.4860616,19.0685453 L69.8567928,19.0103073 Z" fill="#d8a353" class="color000000 svgShape"></path></g><g transform="translate(627 168)" fill="#d8a353" class="color000000 svgShape"><circle cx="35" cy="52" r="2" fill="#d8a353" fill-rule="nonzero" class="color000000 svgShape"></circle><circle cx="63" cy="52" r="2" fill="#d8a353" fill-rule="nonzero" class="color000000 svgShape"></circle><path fill="#d8a353" fill-rule="nonzero" d="M64 46C66.7614237 46 69 48.2385763 69 51 69 53.7614237 66.7614237 56 64 56 61.2385763 56 59 53.7614237 59 51 59 48.2385763 61.2385763 46 64 46zM64 48C62.3431458 48 61 49.3431458 61 51 61 52.6568542 62.3431458 54 64 54 65.6568542 54 67 52.6568542 67 51 67 49.3431458 65.6568542 48 64 48zM36 46C38.7614237 46 41 48.2385763 41 51 41 53.7614237 38.7614237 56 36 56 33.2385763 56 31 53.7614237 31 51 31 48.2385763 33.2385763 46 36 46zM36 48C34.3431458 48 33 49.3431458 33 51 33 52.6568542 34.3431458 54 36 54 37.6568542 54 39 52.6568542 39 51 39 49.3431458 37.6568542 48 36 48zM45.9198575 63.3922527C45.7032223 63.900276 45.1157705 64.1364927 44.6077473 63.9198575 44.099724 63.7032223 43.8635073 63.1157705 44.0801425 62.6077473 45.2748157 59.806163 47.485259 58 50 58 52.514741 58 54.7251843 59.806163 55.9198575 62.6077473 56.1364927 63.1157705 55.900276 63.7032223 55.3922527 63.9198575 54.8842295 64.1364927 54.2967777 63.900276 54.0801425 63.3922527 53.1742915 61.2679747 51.6225012 60 50 60 48.3774988 60 46.8257085 61.2679747 45.9198575 63.3922527z" class="color000000 svgShape"></path></g></g></svg>