<svg xmlns="http://www.w3.org/2000/svg" enable-background="new 0 0 510.004 470.025" viewBox="0 0 510.004 470.025" id="cat"><g fill="#8526fe" class="color000000 svgShape"><g fill="#8526fe" class="color000000 svgShape"><g fill="#8526fe" class="color000000 svgShape"><g fill="#8526fe" class="color000000 svgShape"><path fill="#d8a353" d="M427.364 7.817c-26.247 22.806-51.695 47.137-75.639 72.318-3.806 4.002-3.647 10.332.356 14.138 4.003 3.806 10.332 3.645 14.138-.356 23.507-24.723 48.492-48.611 74.26-71 5.34-4.636 10.985-2.476 12.589-1.703 1.601.771 6.802 3.837 6.503 10.892-2.193 51.97-8.182 102.206-18.31 153.577-1.217 6.179 3.514 11.936 9.822 11.936 4.68-.001 8.861-3.302 9.801-8.068 10.326-52.38 16.433-103.605 18.669-156.601C480.726 5.251 448.278-10.346 427.364 7.817zM81.799 12.515C60.865-5.668 28.441 9.983 29.611 37.648c2.185 51.519 8.253 103.103 18.036 153.319 1.06 5.439 6.327 8.958 11.728 7.903 5.421-1.056 8.959-6.307 7.903-11.728-9.593-49.238-15.543-99.82-17.685-150.34-.299-7.053 4.903-10.119 6.504-10.89 1.604-.774 7.251-2.933 12.587 1.702 24.711 21.471 48.727 44.339 71.38 67.971 3.822 3.988 10.152 4.12 14.139.299 3.987-3.822 4.121-10.152.299-14.139C131.429 57.677 106.969 34.385 81.799 12.515zM294.584 370.026c-5.522 0-10 4.477-10 10 0 5.514-4.486 10-10 10-5.514 0-10-4.486-10-10v-31.807c3.644-1.294 7.083-3.303 10.081-6.041l13.996-12.781c0-.001 0-.001 0-.001 9.214-8.414 12.252-21.368 7.739-33.001-4.513-11.634-15.491-19.15-27.97-19.15h-27.693c-12.406 0-23.361 7.458-27.91 19-4.549 11.542-1.627 24.47 7.443 32.934l13.697 12.781c3.133 2.923 6.763 5.041 10.616 6.364v31.702c0 5.514-4.486 10-10 10-5.514 0-10-4.486-10-10 0-5.523-4.477-10-10-10-5.522 0-10 4.477-10 10 0 16.542 13.458 30 30 30 7.677 0 14.689-2.898 20-7.657 5.312 4.759 12.323 7.657 20 7.657 16.542 0 30-13.458 30-30C304.584 374.503 300.107 370.026 294.584 370.026zM247.613 327.336l-13.697-12.781c-4.618-4.31-3.066-9.491-2.482-10.978.586-1.485 2.987-6.333 9.304-6.333h27.693c6.354 0 8.743 4.886 9.323 6.384.581 1.497 2.111 6.716-2.579 10.999l-13.996 12.782C257.356 330.9 251.397 330.868 247.613 327.336z" class="colorda5461 svgShape"></path></g><g fill="#8526fe" class="color000000 svgShape"><path fill="#ad59d4" d="M357.311 430.075c-87.917 38.27-226.984 24.215-283.148-64.594l68.088-15.713c5.381-1.242 8.736-6.611 7.495-11.993-1.241-5.381-6.606-8.74-11.993-7.495l-73.427 16.945c-3.82-8.409-6.965-17.36-9.354-26.865l87.279-20.141c5.381-1.242 8.736-6.611 7.495-11.993-1.241-5.381-6.606-8.736-11.993-7.495l-86.516 19.965c-1.588-12.061-1.986-24.287-1.398-35.875.279-5.516-3.966-10.214-9.481-10.493-5.54-.29-10.214 3.966-10.493 9.482-.694 13.689-.125 27.708 1.817 41.4l-23.928 5.522c-5.381 1.242-8.736 6.611-7.495 11.993 1.247 5.402 6.635 8.733 11.993 7.495l23.246-5.365c2.323 9.327 5.31 18.325 8.977 26.953l-36.721 8.474c-5.381 1.242-8.736 6.611-7.495 11.993 1.247 5.401 6.635 8.733 11.993 7.495l41.378-9.549c10.749 18.724 25.015 35.382 42.644 49.613 40.095 32.366 96.317 50.191 158.309 50.191 39.949 0 78.232-7.473 110.711-21.611 5.065-2.204 7.382-8.097 5.178-13.16C368.266 430.189 362.371 427.871 357.311 430.075zM179.584 230.025c16.542 0 30-13.458 30-29.999s-13.458-30-30-30-30 13.458-30 30S163.042 230.025 179.584 230.025zM179.584 190.025c5.514 0 10 4.486 10 10 0 5.514-4.486 10-10 10-5.514 0-10-4.486-10-10C169.584 194.511 174.071 190.025 179.584 190.025zM359.584 200.025c0-16.542-13.458-30-30-30-16.542 0-30 13.458-30 30s13.458 29.999 30 29.999C346.126 230.025 359.584 216.567 359.584 200.025zM319.584 200.025c0-5.514 4.486-10 10-10 5.514 0 10 4.486 10 10 0 5.514-4.486 10-10 10C324.071 210.025 319.584 205.539 319.584 200.025z" class="color283954 svgShape"></path><path fill="#ad59d4" d="M502.251,360.281l-37.546-8.665c3.673-8.651,6.67-17.643,8.986-26.951l24.062,5.553
					c5.36,1.238,10.747-2.096,11.993-7.495c1.241-5.382-2.114-10.751-7.495-11.993l-24.73-5.707
					c1.372-9.711,2.061-19.72,2.061-29.999c0-84.331-46.462-158.185-115.748-196.738c-68.304-38.008-152.877-37.904-221.551,1.718
					c-51.627,29.802-91.732,80.753-106.516,142.43c-1.287,5.371,2.023,10.768,7.394,12.055c5.38,1.284,10.768-2.023,12.056-7.393
					c13.388-55.853,49.72-102.44,97.063-129.77c62.77-36.214,139.857-36.048,201.83-1.564
					c63.132,35.129,105.473,102.392,105.473,179.262c0,8.745-0.555,17.241-1.635,25.482l-85.696-19.776
					c-5.38-1.24-10.751,2.114-11.993,7.495c-1.241,5.382,2.114,10.751,7.495,11.993l86.474,19.956
					c-2.342,9.367-5.45,18.335-9.3,26.878l-72.676-16.772c-5.38-1.24-10.751,2.114-11.993,7.495
					c-1.241,5.382,2.114,10.751,7.495,11.993l67.407,15.556c-11.189,17.853-26.131,33.411-44.662,46.313
					c-4.532,3.156-5.648,9.389-2.493,13.921c3.141,4.51,9.366,5.663,13.921,2.493c22.602-15.737,40.62-35.237,53.653-58.015
					c44.222,10.113,42.282,9.991,44.432,9.991c4.552,0,8.668-3.129,9.735-7.753C510.988,366.893,507.632,361.524,502.251,360.281z" class="color283954 svgShape"></path></g></g></g></g></svg>