<svg xmlns="http://www.w3.org/2000/svg" viewBox="0 0 100 100" id="TongueCat"><g fill="none" fill-rule="evenodd" transform="translate(-407 -498)"><g fill="#d8a353" fill-rule="nonzero" transform="translate(407 498)" class="color000000 svgShape"><path d="M72.8441235,36.5870324 C73.2392836,36.2011996 73.8724034,36.2087608 74.2582362,36.6039209 C76.8647227,39.2734173 78.7873582,42.4700331 79.9299589,46.1769304 C84.8454001,62.1239151 74.5567008,73 50,73 C25.4432992,73 15.1545999,62.1239151 20.0700411,46.1769304 C21.192392,42.5357287 23.0675024,39.3865755 25.6046851,36.7454586 C25.9872941,36.3471763 26.6203316,36.3344705 27.0186139,36.7170795 C27.4168962,37.0996885 27.429602,37.732726 27.046993,38.1310083 C24.7238951,40.5492704 23.0106576,43.4265664 21.9813066,46.766052 C17.5022967,61.2971388 26.6811346,71 50,71 C73.3188654,71 82.4977033,61.2971388 78.0186934,46.766052 C76.9707899,43.3663773 75.2141698,40.4457823 72.8272351,38.0011452 C72.4414022,37.6059851 72.4489635,36.9728653 72.8441235,36.5870324 Z" fill="#d8a353" class="color000000 svgShape"></path><path d="M84.8759653 52.0077221C85.4239852 51.9392196 85.9237754 52.3279453 85.9922779 52.8759653 86.0558873 53.3848409 85.7252541 53.8521307 85.2389208 53.971137L85.1240347 53.9922779 77.1240347 54.9922779C76.5760148 55.0607804 76.0762246 54.6720547 76.0077221 54.1240347 75.9441127 53.6151591 76.2747459 53.1478693 76.7610792 53.028863L76.8759653 53.0077221 84.8759653 52.0077221zM76.0384761 57.7252789C76.1793629 57.2321749 76.6666665 56.9318197 77.1607389 57.0129066L77.2747211 57.0384761 84.2747211 59.0384761C84.8057561 59.1902003 85.1132482 59.7436861 84.9615239 60.2747211 84.8206371 60.7678251 84.3333335 61.0681803 83.8392611 60.9870934L83.7252789 60.9615239 76.7252789 58.9615239C76.1942439 58.8097997 75.8867518 58.2563139 76.0384761 57.7252789z" fill="#d8a353" class="color000000 svgShape"></path><path d="M22.6046058,52.0082582 C23.1523297,51.9374274 23.6537673,52.3240257 23.724598,52.8717496 C23.7903694,53.3803504 23.461725,53.849041 22.9759018,53.9701129 L22.8611066,53.9917418 L15.1282504,54.9917418 C14.5805265,55.0625726 14.0790889,54.6759743 14.0082582,54.1282504 C13.9424868,53.6196496 14.2711312,53.150959 14.7569544,53.0298871 L14.8717496,53.0082582 L22.6046058,52.0082582 Z" transform="matrix(-1 0 0 1 37.733 0)" fill="#d8a353" class="color000000 svgShape"></path><path d="M14.7742553,57.7152469 C14.9202869,57.223642 15.4107023,56.928395 15.9039004,57.0146401 L16.0176093,57.0413991 L22.7504655,59.0413991 C23.2798861,59.1986639 23.5815781,59.7553325 23.4243133,60.2847531 C23.2782817,60.776358 22.7878662,61.071605 22.2946681,60.9853599 L22.1809593,60.9586009 L15.4481031,58.9586009 C14.9186824,58.8013361 14.6169905,58.2446675 14.7742553,57.7152469 Z" transform="matrix(-1 0 0 1 38.199 0)" fill="#d8a353" class="color000000 svgShape"></path><path d="M69.8567928,19.0103073 C70.2237946,18.9572026 70.5900499,19.1115454 70.8083531,19.4113021 C74.319444,24.2324525 75.358097,31.1568062 73.9886044,40.1505367 C73.9054653,40.6965278 73.3954545,41.0717435 72.8494633,40.9886044 C72.3034722,40.9054653 71.9282565,40.3954545 72.0113956,39.8494633 C73.2521708,31.7010456 72.4265487,25.4829743 69.5907948,21.1656458 L69.54,21.091 L69.4471801,21.1093098 C65.4215022,21.9124227 61.9987943,24.5603789 59.1563326,29.1200543 L58.9141135,29.5155669 C58.6924028,29.8840403 58.259945,30.0695086 57.8401683,29.9761503 C54.9099167,29.3244623 52.2956382,29 50,29 C47.7043618,29 45.0900833,29.3244623 42.1598317,29.9761503 C41.740055,30.0695086 41.3075972,29.8840403 41.0858865,29.5155669 C38.2788565,24.8504073 34.8931754,22.0957545 30.9061752,21.1848964 L30.459,21.091 L30.4092052,21.1656458 C27.6379003,25.3848532 26.7863958,31.4193878 27.9072075,39.2968803 L27.9886044,39.8494633 C28.0717435,40.3954545 27.6965278,40.9054653 27.1505367,40.9886044 C26.6045455,41.0717435 26.0945347,40.6965278 26.0113956,40.1505367 C24.641903,31.1568062 25.680556,24.2324525 29.1916469,19.4113021 C29.4099501,19.1115454 29.7762054,18.9572026 30.1432072,19.0103073 C34.9826506,19.710568 39.0447343,22.627996 42.3044278,27.688927 L42.421,27.873 L43.0203586,27.7525061 C45.3594976,27.293173 47.5089013,27.0436364 49.4698633,27.0052368 L50,27 C52.1018661,27 54.4278534,27.2514154 56.9796414,27.7525061 L57.578,27.873 L57.6955722,27.688927 C60.8716838,22.7577635 64.809565,19.8615889 69.4860616,19.0685453 L69.8567928,19.0103073 Z" fill="#d8a353" class="color000000 svgShape"></path></g><g transform="translate(407 498)" fill="#d8a353" class="color000000 svgShape"><path fill="#d8a353" fill-rule="nonzero" d="M61.7959258 56.8483243C61.1152546 59.8923674 58.8180483 62.3935949 55.7284734 63.7905319 54.9668342 66.2295446 52.6901731 68 50 68 47.3098269 68 45.0331658 66.2295446 44.2716262 63.7902433 41.182142 62.3938021 38.8847736 59.8924935 38.2040742 56.8483243 38.018844 56.0199526 38.8848394 55.3520582 39.6389709 55.7416678 41.4174143 56.6604712 43.5566547 57.3269692 45.8889773 57.6885686 46.0041921 57.7065306 46.1205718 57.723763 46.2373454 57.7402261L45.8889773 57.6885686C46.064168 57.7157299 46.2404481 57.7411709 46.4177465 57.7648693L46.2373454 57.7402261C46.4255264 57.7667564 46.6147304 57.7912888 46.8048811 57.8138075L46.4177465 57.7648693C46.6054976 57.7899648 46.7943906 57.8131063 46.9843411 57.8342672L46.8048811 57.8138075C47.0425989 57.8419594 47.2817961 57.8669641 47.5223232 57.8887908L46.9843411 57.8342672C47.1975548 57.8580196 47.4121008 57.8792767 47.6278599 57.8980009L47.5223232 57.8887908C47.7182509 57.9065703 47.9150611 57.9222411 48.1126728 57.9357864L47.6278599 57.8980009C47.8323514 57.9157473 48.0379327 57.9312185 48.2445019 57.9443827L48.1126728 57.9357864C48.2894082 57.9479008 48.4667847 57.9583151 48.6447446 57.9670174L48.2445019 57.9443827C48.4500044 57.9574789 48.6564847 57.9682917 48.8638428 57.97679L48.6447446 57.9670174C48.832771 57.9762119 49.0214486 57.9834953 49.2107093 57.9888534L48.8638428 57.97679C49.057291 57.9847181 49.2515032 57.9906317 49.446398 57.9945053L49.2107093 57.9888534C49.4727489 57.996272 49.7359061 58 50 58L50.5535127 57.994507C50.6329551 57.9929284 50.712284 57.9910107 50.7914939 57.9887559 50.906455 57.985528 51.0214004 57.9815465 51.1361145 57.9768554L50.7914939 57.9887559C50.9801059 57.9833867 51.1680435 57.9761055 51.3552324 57.9669355L51.1361145 57.9768554C51.3433471 57.9683807 51.5498248 57.9575901 51.755457 57.9445023L51.3552324 57.9669355C51.5330109 57.9582265 51.710114 57.9478139 51.8864783 57.9357176L51.755457 57.9445023C51.9624701 57.9313265 52.1686264 57.9158225 52.3738333 57.8980094L51.8864783 57.9357176C52.0844943 57.9221363 52.2815788 57.9064326 52.4776418 57.8886346L52.3738333 57.8980094C52.5891591 57.8793179 52.8034396 57.8580839 53.0165681 57.8343294L52.4776418 57.8886346C52.7169698 57.8669092 52.9547757 57.8420634 53.1908957 57.8141486L53.0165681 57.8343294C53.2057984 57.8132386 53.3941206 57.7901608 53.5814599 57.7651115L53.1908957 57.8141486C53.3860576 57.7910759 53.5800678 57.7659066 53.7728337 57.7386696L53.5814599 57.7651115C53.7544367 57.7419827 53.9265754 57.7171731 54.0978174 57.6906949L53.7728337 57.7386696C53.9695248 57.710878 54.1649204 57.6809337 54.3589222 57.6488674L54.0978174 57.6906949C54.2889958 57.661134 54.4790563 57.6294933 54.6679173 57.5957898L54.3589222 57.6488674C56.5949263 57.2792824 58.645783 56.6278214 60.3610291 55.7416678 61.1151606 55.3520582 61.981156 56.0199526 61.7959258 56.8483243zM54 59.7265089C52.7018734 59.9074908 51.3616241 60 50 60 48.6383759 60 47.2981266 59.9074908 46 59.7265089L46 62C46 64.209139 47.790861 66 50 66 52.209139 66 54 64.209139 54 62L54 59.7265089zM41.0188146 58.5165589C41.71825 59.6550354 42.7455399 60.6403746 43.9996363 61.3950669L43.9996765 59.3703359C42.9597669 59.1434529 41.9616578 58.8575884 41.0188146 58.5165589zM58.9811854 58.5165589C58.0386451 58.8574789 57.0408744 59.1432693 56.0013256 59.3701172L56.0013656 61.3944639C57.2550072 60.6398498 58.2819363 59.6547322 58.9811854 58.5165589zM38.9065701 51.7119023C38.9867843 52.2583308 38.6088429 52.7663251 38.0624144 52.8465392 37.5159858 52.9267534 37.0079916 52.548812 36.9277774 52.0023835 36.7556901 50.8301045 35.9053501 50 34.958653 50 34.0119559 50 33.1616158 50.8301045 32.9895286 52.0023835 32.9093144 52.548812 32.4013201 52.9267534 31.8548916 52.8465392 31.3084631 52.7663251 30.9305217 52.2583308 31.0107358 51.7119023 31.3200341 49.6049252 32.9640828 48 34.958653 48 36.9532232 48 38.5972718 49.6049252 38.9065701 51.7119023zM65 45C67.7614237 45 70 47.2385763 70 50 70 52.7614237 67.7614237 55 65 55 62.2385763 55 60 52.7614237 60 50 60 47.2385763 62.2385763 45 65 45zM65 47C63.3431458 47 62 48.3431458 62 50 62 51.6568542 63.3431458 53 65 53 66.6568542 53 68 51.6568542 68 50 68 48.3431458 66.6568542 47 65 47z" class="color000000 svgShape"></path><circle cx="65" cy="50" r="1" fill="#d8a353" fill-rule="nonzero" class="color000000 svgShape"></circle></g></g></svg>