<?xml version="1.0" encoding="UTF-8" standalone="no"?>
<svg
   xmlns:dc="http://purl.org/dc/elements/1.1/"
   xmlns:cc="http://creativecommons.org/ns#"
   xmlns:rdf="http://www.w3.org/1999/02/22-rdf-syntax-ns#"
   xmlns:svg="http://www.w3.org/2000/svg"
   xmlns="http://www.w3.org/2000/svg"
   xmlns:sodipodi="http://sodipodi.sourceforge.net/DTD/sodipodi-0.dtd"
   xmlns:inkscape="http://www.inkscape.org/namespaces/inkscape"
   version="1.1"
   id="Layer_1"
   x="0px"
   y="0px"
   viewBox="0 0 1700 2000"
   xml:space="preserve"
   sodipodi:docname="Grooming-Cat-Line-Art-lucky.svg"
   width="1700"
   height="2000"
   inkscape:version="0.92.1 r15371"><metadata
   id="metadata8047"><rdf:RDF><cc:Work
       rdf:about=""><dc:format>image/svg+xml</dc:format><dc:type
         rdf:resource="http://purl.org/dc/dcmitype/StillImage" /><dc:title></dc:title></cc:Work></rdf:RDF></metadata><defs
   id="defs8045" /><sodipodi:namedview
   pagecolor="#ffffff"
   bordercolor="#666666"
   borderopacity="1"
   objecttolerance="10"
   gridtolerance="10"
   guidetolerance="10"
   inkscape:pageopacity="0"
   inkscape:pageshadow="2"
   inkscape:window-width="1366"
   inkscape:window-height="706"
   id="namedview8043"
   showgrid="false"
   inkscape:snap-global="false"
   fit-margin-top="0"
   fit-margin-left="0"
   fit-margin-right="0"
   fit-margin-bottom="0"
   inkscape:zoom="0.1566991"
   inkscape:cx="735.43262"
   inkscape:cy="1174.3211"
   inkscape:window-x="-8"
   inkscape:window-y="-8"
   inkscape:window-maximized="1"
   inkscape:current-layer="g8040" />
<g
   id="g8040"
   fill="#d8a353"
   transform="translate(-41.000801,79.030242)">
	<path
   d="M 1212.1856,-9.3125846 C 1167.0102,-9.7067906 1116.7547,7.9954004 1065.67,45.622962 918.03107,154.36896 942.51226,227.07219 582.20126,298.61319 c -88.995,-59.945 -189.73774,-102.37696 -294.80274,-124.16796 -111.637,-23.153 -172.6912,17.20087 -163.2832,158.79687 8.583,129.177 37.82253,256.96158 86.26953,377.01758 30.527,75.648 16.83874,87.91234 -34.32226,140.77734 -179.3030144,185.27498 -73.06624,498.76278 -60.49024,575.34178 1.60329,9.7613 1.09992,21.8231 7.35742,32.8125 -0.48448,0.2469 -0.99167,0.4814 -1.54687,0.6816 1.03676,13.2611 -2.29117,27.2272 2.02343,39.9239 5.18854,24.2863 2.57007,49.3494 3.23633,73.9804 0.68152,11.894 -1.84334,24.2042 2.28711,35.5606 1.9563,12.6989 -0.76683,25.5437 0.34961,38.3047 0.005,13.726 -0.0167,27.4517 -0.002,41.1777 13.64592,7.0808 29.48491,9.9665 44.73633,7.8945 7.95494,-13.0226 4.4997,-28.861 5.24805,-43.2949 0.003,-12.7616 0.0923,-25.5235 0.0156,-38.2851 -4.8024,-9.8303 -14.95809,-17.2391 -16.87109,-27.9141 -3.7341,-9.935 -5.33531,-20.3743 -4.11133,-30.9375 1.79121,-10.9572 -3.86558,-20.6481 -4.50781,-31.1426 -1.26778,-11.31 -4.18248,-22.4995 -3.29493,-33.9492 -0.12754,-5.0835 -2.15651,-9.5091 -3.90039,-14.0527 1.58057,0.6626 2.81461,1.2262 2.90235,1.4629 -2.86956,-7.7446 -5.67872,-15.8521 -8.42383,-24.2364 -1.65784,-6.8708 -3.20028,-13.7654 -3.89844,-20.8086 -0.7827,0.5435 -1.45219,1.1627 -2.04101,1.834 -57.100844,-190.8478 -76.322509,-509.38209 94.15241,-560.18746 61.886,-18.444 131.21567,8.85601 183.26367,41.54101 257.679,161.81795 123.45028,419.30925 -58.63672,357.74025 -55.016,-18.603 -98.2272,-65.3929 -118.6582,-119.7559 -5.287,-14.07 -20.98442,-31.8154 -30.85742,-20.4824 -15.51,17.803 35.98395,153.0107 163.00195,172.8457 49.186,7.681 101.07586,-2.9114 148.25586,12.9746 73.549,24.764 114.77369,106.1355 185.80469,137.3965 65.406,28.785 156.22297,11.1744 196.79297,83.7324 -2.73591,18.7493 -12.32997,35.8218 -14.70703,55.7305 -0.17315,0.8736 -0.28566,1.7534 -0.28516,2.6172 -6.67719,61.2009 -16.77516,125.1317 9.27344,182.9648 57.94138,91.1453 237.32386,128.1114 327.20896,94.0742 43.1068,-14.8974 84.3317,-37.7148 116.9141,-69.8496 29.956,-35.1942 33.197,-83.2461 46.0117,-125.7929 14.1925,-31.6282 23.3961,-66.5332 26.0781,-102.3008 6.4546,15.0213 19.3487,30.3031 22.9844,43.2148 9.7784,29.6856 24.0271,50.8388 43.6172,77.1465 8.785,17.1312 28.4767,23.6321 43.7207,25.2734 32.8512,-1.0288 66.1895,-11.7268 98.5723,-16.6464 116.4214,-41.2439 102.4446,-172.9366 77.1718,-261.7461 -3.4999,-138.031 -59.143,-233.6894 -149.6914,-338.0157 -26.153,-30.132 -56.4987,-59.805 -65.1777,-98.748 -8.427,-37.81099 5.3554,-76.48894 14.6934,-114.08594 56.957,-229.308 -58.145,-353.74581 -87.877,-496.04883 -15.142,-72.47399 -9.0097,-147.86173 -20.9707,-220.92773 C 1366.1581,58.144606 1298.4297,-8.5600096 1212.1856,-9.3125846 Z m -5.2304,45.1679686 c 3.824,-0.0047 7.5987,0.264828 11.3047,0.845703 105.16,16.484 173.8582,228.830043 120.5332,371.623043 -4.096,10.969 -4.8454,17.69953 2.7226,27.76953 85.576,113.872 107.1089,168.69972 120.7129,305.63672 10.253,103.262 -12.1244,232.67373 -31.0254,274.34572 -19.502,42.996 -30.0472,171.9261 -235.4902,269.9121 -156.119,74.461 -226.02648,105.6369 -332.43948,100.9219 -126.388,-5.599 -290.68564,-92.2146 -304.43164,-101.0196 -7.349,-4.707 -20.66153,-10.0442 -12.89453,-19.7402 3.404,-4.249 8.45521,-6.6293 12.15821,-10.4473 8.213,-8.468 13.6854,-19.0389 21.1914,-28.1699 28.47,-34.635 20.15489,-89.2737 7.08789,-136.8047 -11.924,-43.375 -23.14167,-88.585 -54.13867,-122.91403 -9.541,-10.566 -16.87025,-23.39338 -27.28125,-33.35938 -26.542,-25.408 14.75733,-17.00003 90.73633,-154.83203 32.255,-58.514 58.74159,-95.21786 70.30859,-228.88086 3.474,-40.148 9.18024,-86.88334 -5.38476,-125.40234 -6.849,-18.113 -16.18389,-42.30777 -28.58789,-57.25977 -29.608,-35.689 50.26915,-51.91237 69.03515,-57.10937 80.125,-22.19 164.56199,-32.99761 184.45899,-32.97461 11.043,0.012 17.55,0.58815 26.875,-7.08985 22.926,-18.877 38.19725,-53.31314 57.78125,-76.24414 37.98701,-44.482 79.24631,-84.79292 129.32031,-115.419918 28.8958,-17.673684 70.4817,-43.340922 107.4473,-43.386718 z M 248.46688,301.77726 c 25.09049,0.2434 52.62876,9.42148 68.18555,18.34961 19.466,11.171 88.63828,40.98734 91.48828,112.77734 1.801,45.376 -41.49394,88.23897 -74.96094,113.29297 -25.164,18.839 -47.11343,34.5524 -77.02343,-14.30859 -44.141,-72.11001 -49.26085,-113.47119 -57.33985,-148.24219 -3.901,-16.789 -7.78312,-34.53767 -2.70312,-51.01367 6.95859,-22.56891 27.23828,-30.53949 49.93359,-30.85157 0.80379,-0.0111 1.61055,-0.0117 2.41992,-0.004 z M 1475.2989,1104.2226 c 28.304,-0.1806 51.5953,32.3943 51.9922,62.4492 0.438,33.164 -16.2646,63.784 -25.5566,95.623 -30.7834,105.4785 33.9262,228.389 136.1093,266.3262 2.3112,10.8166 5.1945,21.1251 7.4239,28.5957 9.1364,71.8046 -14.4641,102.1503 -90.375,93.8516 -34.1162,-2.6011 -56.9355,-28.2202 -77.4864,-52.5762 -23.0812,-13.9776 -39.4555,-44.4199 -62.457,-55.1777 -2.251,1.9101 -7.2021,-27.5417 -8.6348,-25.5313 -1.9974,-71.8761 -28.4993,-113.1555 -98.1347,-167.5762 127.017,-222.635 129.5843,-237.6389 158.1933,-244.8379 3.0155,-0.7588 5.9978,-1.1278 8.9258,-1.1464 z m -285.7129,254.9492 c 120.1014,0.9599 195.6956,110.1024 183.6485,205.8301 -9.1265,58.1673 -28.8731,128.9023 -47.6485,168.7949 -15.1254,32.0171 -34.3013,64.0542 -62.8632,85.7031 -136.8277,48.6747 -318.14988,-52.699 -332.57232,-181.9258 -9.27442,-24.2919 -13.52692,-50.1782 -7.83985,-72.1523 1.223,-4.715 10.79669,-40.6618 15.05469,-47.7989 31.31,-52.4737 76.74138,-96.5896 130.64848,-125.4296 43.8698,-23.4704 84.8065,-33.3154 121.5722,-33.0215 z m 7.875,116.1035 c -9.7281,0.097 -19.908,3.4586 -28.7109,6.6445 -10.4387,3.9993 -22.1283,17.4923 -12.5742,27.2637 11.6785,9.2588 29.6219,6.0016 42.5781,-0.2813 11.3808,-5.5304 21.5258,-20.9829 11.5215,-31.414 -4.0639,-1.6271 -8.3926,-2.2572 -12.8145,-2.2129 z m -116.9336,40.2383 c -13.4037,-0.043 -27.0913,3.7525 -40.0839,6.8867 -1.2425,0.4742 -4.4724,1.8148 -3.4063,3.7969 12.5027,8.4384 14.7563,28.8982 31.8555,30.9746 17.3353,-2.6367 36.2337,-21.1221 29.6445,-38.7989 -5.8838,-2.0274 -11.9171,-2.8398 -18.0098,-2.8593 z m 141.7579,0.6836 c -7.504,-0.011 -15.2736,2.8072 -19.9708,8.2285 -10.4352,4.8576 -19.9043,11.4461 -30.0937,16.7539 -14.3287,5.4998 -42.1564,11.6749 -33.2461,32.3223 9.4461,17.139 35.9012,4.5078 38.3164,-12.0547 -5.0276,-11.8998 19.77,-12.3075 11.4492,-1.6973 -16.3079,13.2879 11.7203,33.5943 23.043,18.0606 14.0194,-12.6299 32.3491,-26.8075 31.0391,-47.0684 -1.6769,-9.8412 -10.8886,-14.5312 -20.5371,-14.5449 z m -128.9239,57.8125 c -2.7347,-0.09 -5.5134,0.3701 -8.207,1.498 -11.8473,14.3807 -25.304,27.7479 -40.9649,38.25 -10.471,5.6144 -36.7765,6.2974 -30.0312,23.3438 8.5574,12.1997 27.391,9.2129 39.4805,2.8867 8.3308,-17.2127 28.5965,1.4394 14.8672,12.209 -8.8626,12.0099 -13.1519,29.3718 -24.2071,41.3847 -11.5834,12.1478 -16.2523,38.6683 4.1856,43.3907 17.9359,1.2179 30.6158,-15.5658 36.1172,-30.3204 3.8449,-17.5646 32.7117,-15.5129 29.8242,3.211 -3.1339,16.4244 -7.3609,37.7686 9.4433,48.375 19.2482,12.0817 32.6564,-21.9175 16.459,-31.5703 -2.5293,-17.6961 -8.2719,-34.6305 -13.0097,-51.7715 -19.2748,-7.8713 12.1885,-33.3402 11.0214,-11.252 7.0513,12.5768 14.7722,25.1843 26.0489,34.6192 9.8656,9.7271 23.6567,12.9268 36.541,5.6972 14.5577,-4.0413 28.5141,-10.1332 43.1367,-13.7421 17.8499,-3.9295 30.3263,22.8289 47.7539,10.7734 12.022,-12.9526 16.0891,-30.6074 19.4102,-47.0488 2.8749,-20.0495 11.4297,-43.1334 -1.4297,-61.0879 -15.0111,-16.7066 -41.5488,-15.967 -62.4864,-10.4219 -19.1358,5.3604 -37.222,13.9719 -55.3437,22.043 -9.7982,2.6364 -24.1287,17.2488 -6.4805,19.2382 19.0181,6.8123 2.7075,33.8293 -14.6933,29.1036 -20.3578,-3.7715 -35.4719,-23.0942 -34.3321,-43.3418 3.2656,-22.5506 -22.3549,16.5706 -22.8945,-4.6348 8.0483,-13.8432 -5.4415,-30.3483 -20.209,-30.832 z m 168.4649,16.8261 c 1.3083,0.013 2.5817,0.1717 3.7929,0.4922 8.2944,0.8018 12.6857,7.8212 15.0645,14.7383 5.0839,16.2885 5.4636,36.8478 -6.5371,51.0254 -8.7867,13.4599 -40.0846,6.7825 -30.5977,-10.918 6.1923,-9.6918 12.4866,-25.3688 -1.8652,-30.4746 -8.2841,-11.5362 7.4951,-24.9872 20.1426,-24.8633 z m -70.5215,69.5977 c 26.6993,1.8639 -17.175,30.7981 -13.8262,6.4941 5.3748,-0.1839 9.0465,-4.6868 13.8262,-6.4941 z"
   id="path8012"
   inkscape:connector-curvature="0"
   sodipodi:nodetypes="scccccsccccccccccccccccccccccccccccccccccccccccccccccsccccccsccccccccccscccccscccccccsccccccccccccscccccccccccccccccccccccccccccccccccccccccccccccccccccccccccccccccccc" />
	<path
   d="m 456.336,1089.131 c 6.233,6.155 24.117,28.409 23.687,37.241 -0.521,10.725 -11.538,20.144 -22.183,16.639 -8.212,-2.704 -41.755,-30.055 -41.58,-59.534 0.082,-13.751 24.159,-10.062 40.076,5.654 z"
   id="path8014"
   inkscape:connector-curvature="0" />
	<path
   d="m 364.881,1178.201 c -7.345,-5.237 -8.654,-15.525 -11.611,-23.041 -9.543,-24.251 -25.954,-19.429 -21.943,-33.675 4.8,-17.047 16.421,-12.089 27.571,-2.876 8.766,7.243 17.658,14.623 24.019,24.048 3.625,5.372 16.063,35.604 2.387,36.536 -6.622,0.452 -14.567,3.183 -20.423,-0.992 z"
   id="path8016"
   inkscape:connector-curvature="0" />
	<path
   d="m 285.236,1224.975 c -16.857,-0.608 -3.845,-20.258 -30.489,-55.574 -2.322,-3.078 -2.948,-14.98 -0.513,-17.872 7.879,-9.36 24.751,6.89 32.378,16.205 22.237,27.159 17.683,57.928 -1.376,57.241 z"
   id="path8018"
   inkscape:connector-curvature="0" />
	<path
   d="m 1026.152,1178.3 c -4.4,-0.988 -7.848,-3.813 -12.337,-4.456 -18.762,-2.687 -33.961,22.843 -40.255,37.065 -18.956,42.84 -128.826,36.937 -153.958,-1.215 -10.923,-16.583 -3.617,-38.579 7.147,-41.85 8.716,-2.649 16.488,5.584 22.814,12.138 22.334,23.138 60.924,35.443 89.487,15.939 15.178,-10.364 19.441,-24.802 24.852,-41.253 8.683,-26.4 -3.987,-64.117 -3.675,-78.946 0.522,-24.79 -76.71,-7.925 -85.986,-47.513 -2.777,-11.85 3.329,-23.97 10.711,-33.647 47.18,-61.85 141.029,-54.294 153.57,-24.207 8.111,19.46 -13.151,46.409 -24.854,70.349 -10.421,21.317 -10.733,42.461 -6.508,65.432 8.24,44.795 104.281,48.515 114.044,10.036 3.174,-12.509 5.44,-25.328 4.856,-38.549 -0.809,-18.365 24.469,-18.029 36.445,-13.585 17.88,6.634 9.067,32.536 8.253,46.999 -1.489,26.459 -12.642,27.368 -34.465,47.374 -8.485,7.778 -15.621,16.287 -27.586,18.448 -18.371,3.318 -71.256,3.979 -82.555,1.441 z"
   id="path8020"
   inkscape:connector-curvature="0" />
	<path
   d="m 1165.789,397.884 c -21.478,-4.91 -35.042,-12.902 -108.763,-50.389 -26.837,-13.646 -80.673,-20.143 -36.401,-87.37 24.263,-36.844 56.284,-74.62 94.725,-97.025 25.309,-14.751 60.416,-26.014 88.841,-13.614 18.62,8.125 26.483,29.966 30.368,48.385 5.297,25.112 11.916,49.994 13.473,75.765 4.213,69.703 -13.356,139.997 -82.243,124.248 z m -4.224,-214.332 c -36.9,-4.21 -69.141,47.615 -88.59,71.948 -22.23,27.813 -6.561,34.109 19.008,54.253 32.491,25.596 84.395,46.491 96.385,48.285 13.16,1.969 12.985,-5.815 13.009,-17.403 0.066,-30.823 -3.791,-61.637 -11.22,-91.544 -3.912,-15.755 -11.138,-63.548 -28.592,-65.539 z"
   id="path8022"
   inkscape:connector-curvature="0" />
	<path
   d="m 1166.532,785.708 c -33.999,14.871 -29.684,37.645 -42.067,56.304 -16.539,24.921 -75.594,-27.122 6.865,-72.599 21.582,-11.903 35.962,-34.673 72.665,-21.82 51.524,18.043 50.424,51.761 27.029,56.366 -30.105,5.925 -31.815,-32.543 -64.492,-18.251 z"
   id="path8024"
   inkscape:connector-curvature="0" />
	<path
   d="m 633.279,970.612 c -2.789,4.104 -3.766,9.821 -7.137,13.623 -3.642,4.108 -13.067,7.727 -18.335,5.324 -14.615,-6.668 -18.012,-16.788 -10.953,-30.893 28.664,-57.276 61.815,-66.413 124.579,-52.86 11.553,2.495 22.771,8.339 27.733,21.337 4.857,12.725 -12.617,19.396 -22.681,18.288 -15.94,-1.756 -52.004,-35.434 -93.206,25.181 z"
   id="path8026"
   inkscape:connector-curvature="0" />
	<path
   d="m 637.908,1188.575 c -5.595,8.292 -19.762,13.507 -21.387,13.638 -9.983,0.808 -18.272,-13.722 -16.661,-22.27 5.828,-30.925 63.093,-51.854 83.183,-34.161 14.926,13.144 14.964,35.14 -16.662,34.828 -12.395,-0.122 -20.509,-3.84 -28.473,7.965 z"
   id="path8028"
   inkscape:connector-curvature="0" />
	<path
   d="m 717.365,1240.397 c -0.134,10.242 -9.212,14.252 -17.947,15.986 -10.358,2.056 -18.298,2.074 -24.009,12.648 -4.116,7.621 -13.043,13.583 -21.119,16.241 -19.047,6.269 -33.744,-8.64 -25.868,-23.381 2.274,-4.255 5.724,-7.743 9.124,-11.165 10.586,-10.651 25.384,-34.309 42.111,-31.688 10.141,1.589 20.158,2.509 29.361,7.443 7.688,4.12 8.458,5.321 8.347,13.916 z"
   id="path8030"
   inkscape:connector-curvature="0" />
	<path
   d="m 1275.09,912.52 c -10.904,4.013 -21.432,14.606 -33.884,12.73 -9.084,-1.369 -16.852,-14.026 -15.304,-22.983 1.555,-8.994 17.964,-13.307 25.038,-16.213 10.747,-4.414 53.436,-19.693 67.508,-18.453 12.137,1.07 10.386,14.942 7.799,27.098 -0.27,1.269 -1.226,2.85 -2.317,3.415 -7.241,3.752 -12.936,8.02 -21.154,9.666 -9.195,1.843 -18.782,1.463 -27.686,4.74 z"
   id="path8032"
   inkscape:connector-curvature="0" />
	<path
   d="m 668.031,1056.7 c 10.209,1.148 12.126,14.675 10.294,22.768 -2.564,11.323 -13.866,13.272 -23.274,17.568 -7.218,3.296 -47.912,21.818 -56.838,22.634 -21.661,1.98 -11,-16.295 -2.671,-24.855 19.584,-20.128 63.661,-39.108 72.489,-38.115 z"
   id="path8034"
   inkscape:connector-curvature="0" />
	<path
   d="m 1296.82,1072.472 c -11.681,2.792 -18.075,-1.341 -22.346,-12.816 -2.113,-5.675 1.276,-12.251 6.259,-15.122 14.762,-8.504 109.854,1.37 86.914,25.851 -31.474,33.587 -30.611,-7.523 -70.827,2.087 z"
   id="path8036"
   inkscape:connector-curvature="0" />
	<path
   d="m 1322.282,970.236 c -12.939,-2.531 -26.178,5.846 -40.296,10.184 -6.817,2.094 -12.979,0.065 -18.47,-2.172 -5.583,-2.276 -2.596,-11.062 -0.187,-14.872 3.723,-5.888 10.783,-8.09 17.196,-9.706 62.161,-15.659 62.235,-19.071 71.428,-14.475 7.399,6.185 9.197,14.436 6.721,23.097 -0.961,3.362 -5.687,4.732 -9.737,5.523 -7.9,1.543 -15.893,1.635 -26.655,2.421 z"
   id="path8038"
   inkscape:connector-curvature="0" />
</g>
</svg>