<svg xmlns="http://www.w3.org/2000/svg" viewBox="0 0 32 32" id="time-management"><path fill="#8b8891" d="M31.5,18V14l-3.2688-.57684A12.41842,12.41842,0,0,0,26.467,9.17883L28.37439,6.454,25.546,3.62561,22.82117,5.533A12.41842,12.41842,0,0,0,18.57684,3.7688L18,.5H14l-.57684,3.2688A12.41842,12.41842,0,0,0,9.17883,5.533L6.454,3.62561,3.62561,6.454,5.533,9.17883A12.41842,12.41842,0,0,0,3.7688,13.42316L.5,14v4l3.2688.57684A12.41842,12.41842,0,0,0,5.533,22.82117L3.62561,25.546,6.454,28.37439,9.17883,26.467a12.41842,12.41842,0,0,0,4.24432,1.76416L14,31.5h4l.57684-3.2688A12.41842,12.41842,0,0,0,22.82117,26.467L25.546,28.37439,28.37439,25.546,26.467,22.82117a12.41842,12.41842,0,0,0,1.76416-4.24432Z"></path><path fill="#58565d" d="M10.17883 5.533A12.41842 12.41842 0 0 1 14.42316 3.7688L15 .5H14l-.57684 3.2688a12.36029 12.36029 0 0 0-3.7019 1.44385zM4.62561 25.546L6.533 22.82117A12.41842 12.41842 0 0 1 4.7688 18.57684L1.5 18V14l3.2688-.57684A12.41842 12.41842 0 0 1 6.533 9.17883L4.62561 6.454 7.0423 4.03735 6.454 3.62561 3.62561 6.454 5.533 9.17883A12.41842 12.41842 0 0 0 3.7688 13.42316L.5 14v4l3.2688.57684A12.41842 12.41842 0 0 0 5.533 22.82117L3.62561 25.546 6.454 28.37439l.58826-.41174zM23.82117 5.533L25.9577 4.03735 25.546 3.62561l-2.26721 1.587C23.46008 5.31866 23.64563 5.41833 23.82117 5.533zM23.82117 26.467c-.17554.11462-.36108.21429-.54242.32031l2.26721 1.587.41174-.41174zM10.17883 26.467l-.45758.32031a12.36029 12.36029 0 0 0 3.7019 1.44385L14 31.5h1l-.57684-3.2688A12.41842 12.41842 0 0 1 10.17883 26.467z"></path><path fill="#fff" d="M23.5,16c0,.19613-.01155.38072-.0231.57692A7.50777,7.50777,0,0,1,21.7,20.88075a9.15922,9.15922,0,0,1-.81926.81926,7.50757,7.50757,0,0,1-4.30382,1.7769c-.19613.01155-.38079.0231-.57692.0231s-.38079-.01155-.57692-.0231A7.50757,7.50757,0,0,1,11.11925,21.7,9.15922,9.15922,0,0,1,10.3,20.88075a7.50777,7.50777,0,0,1-1.7769-4.30382C8.51155,16.38072,8.5,16.19613,8.5,16s.01155-.38079.0231-.57692A7.50778,7.50778,0,0,1,10.3,11.11918,9.14914,9.14914,0,0,1,11.11925,10.3a7.50811,7.50811,0,0,1,4.30382-1.777c.19613-.01148.38079-.023.57692-.023s.38079.01155.57692.023A7.50811,7.50811,0,0,1,20.88075,10.3a9.14914,9.14914,0,0,1,.81926.81919,7.50778,7.50778,0,0,1,1.7769,4.30389C23.48845,15.61921,23.5,15.8038,23.5,16Z"></path><path fill="#e0e0e2" d="M16.4231,23.47687A7.50731,7.50731,0,0,1,12.11926,21.7,9.16834,9.16834,0,0,1,11.3,20.88074,7.50812,7.50812,0,0,1,9.52307,16.5769C9.51154,16.38068,9.5,16.19611,9.5,16s.01154-.3808.02307-.577A7.5083,7.5083,0,0,1,11.3,11.11914,9.15084,9.15084,0,0,1,12.11926,10.3,7.50785,7.50785,0,0,1,16.4231,8.523c.02612-.00153.05109-.00153.0769-.00305-.16766-.00977-.33-.02-.5-.02-.19611,0-.3808.01154-.5769.023A7.50785,7.50785,0,0,0,11.11926,10.3a9.15084,9.15084,0,0,0-.81927.81915A7.5083,7.5083,0,0,0,8.52307,15.423C8.51154,15.6192,8.5,15.80377,8.5,16s.01154.38068.02307.5769A7.50812,7.50812,0,0,0,10.3,20.88074a9.16834,9.16834,0,0,0,.81927.81927,7.50731,7.50731,0,0,0,4.30383,1.77686c.19611.0116.3808.02313.5769.02313.17,0,.33234-.01013.5-.02C16.47418,23.47845,16.44922,23.47839,16.4231,23.47687Z"></path><path fill="#3c3b41" d="M16 15.5a.49971.49971 0 0 1-.5-.5V13.5a.5.5 0 0 1 1 0V15A.49971.49971 0 0 1 16 15.5zM17.9585 18.45605a.49838.49838 0 0 1-.35352-.14648l-1.25-1.25a.49995.49995 0 0 1 .707-.707l1.25 1.25a.5.5 0 0 1-.35352.85352z"></path><circle cx="16" cy="16" r="1" fill="#fdd402"></circle><path fill="#3c3b41" d="M16.5 7.52V9.5a.5.5 0 0 1-1 0V7.52c.17-.00995.33-.02.5-.02S16.33 7.51 16.5 7.52zM16.5 22.5v1.98c-.17.01-.33.02-.5.02s-.33-.01-.5-.02V22.5a.5.5 0 0 1 1 0zM10.35726 9.65015l1.4001 1.4001a.5.5 0 0 1-.70711.70711l-1.4001-1.4001c.11316-.12723.21924-.24747.33944-.36767S10.23 9.76331 10.35726 9.65015zM20.94975 20.24264l1.40006 1.40006c-.11312.12727-.2192.24751-.3394.36771s-.24044.22628-.36771.3394l-1.40006-1.40006a.5.5 0 0 1 .70711-.70711zM7.52 15.5H9.5a.5.5 0 0 1 0 1H7.52c-.00995-.17-.02-.33-.02-.5S7.51 15.67 7.52 15.5zM22.5 15.5h1.98c.01.17.02.33.02.5s-.01.33-.02.5H22.5a.5.5 0 0 1 0-1zM9.65015 21.64274l1.4001-1.4001a.5.5 0 1 1 .70711.70711l-1.4001 1.4001c-.12723-.11316-.24747-.21924-.36767-.33944S9.76331 21.77 9.65015 21.64274zM20.24264 11.05025L21.6427 9.65019c.12727.11312.24751.2192.36771.3394s.22628.24044.3394.36771l-1.40006 1.40006a.5.5 0 0 1-.70711-.70711z"></path><path fill="#fdd402" d="M16,7a9,9,0,1,0,9,9A9.00072,9.00072,0,0,0,16,7Zm5.7,13.88a7.93941,7.93941,0,0,1-.82.82,7.55062,7.55062,0,0,1-4.3,1.78c-.2.01-.38.02-.58.02s-.38-.01-.58-.02a7.55062,7.55062,0,0,1-4.3-1.78,7.93941,7.93941,0,0,1-.82-.82,7.55063,7.55063,0,0,1-1.78-4.3C8.51,16.38,8.5,16.2,8.5,16s.01-.38.02-.58a7.55045,7.55045,0,0,1,1.78-4.3,7.93337,7.93337,0,0,1,.82-.82,7.55069,7.55069,0,0,1,4.3-1.78c.2-.00995.38-.02.58-.02s.38.01.58.02a7.55069,7.55069,0,0,1,4.3,1.78,7.93337,7.93337,0,0,1,.82.82,7.55045,7.55045,0,0,1,1.78,4.3c.01.2.02.38.02.58s-.01.38-.02.58A7.55063,7.55063,0,0,1,21.7,20.88Z"></path><path fill="#fbbf13" d="M8,16a8.99339,8.99339,0,0,1,8.5-8.97473C16.3335,7.01611,16.16882,7,16,7a9,9,0,0,0,0,18c.16882,0,.3335-.01611.5-.02527A8.99343,8.99343,0,0,1,8,16Z"></path></svg>