<svg xmlns="http://www.w3.org/2000/svg" width="1500" height="1500" id="upwards"><path fill="#386641" d="M309.874 232.228C314.744 233.346 321.012 237.592 319.158 243.395L318.465 245C316.781 248.068 301.897 259.036 298.519 259.995L296.879 260.489C292.543 260.698 288.08 257.452 287.247 253.073L287.191 252.75C285.821 245.073 295.421 241.185 300.693 237.935 303.769 236.038 306.633 233.858 309.874 232.228zM161.465 297.651L165.533 297.521C169.972 297.829 173.132 302.293 172.585 306.583L172.526 307C171.467 314.781 162.446 315.246 156.375 316.251 141.32 318.742 125.585 320.54 110.312 320.433 105.91 320.755 100.685 318.478 99.8157 313.688 97.6637 301.836 110.367 302.443 117.469 302.226L131.813 301.279 161.465 297.651zM259.98 263.279C268.062 261.957 277.064 273.063 264.027 279.963 248.005 288.443 223.751 298.12 206.701 301.66 205.27 301.797 203.687 301.907 202.325 301.393L200.995 300.813C194.183 297.343 194.618 287.966 201.598 284.72 204.96 283.157 209.147 282.62 212.737 281.608L229.152 276.235C239.71 272.493 249.573 267.236 259.98 263.279zM403.206 141.088C410.009 140.308 415.075 147.669 412.208 153.75 410.614 157.132 408.185 160.071 405.984 163.066L387.653 185.914C380.637 193.946 372.87 201.421 365.345 208.976 360.339 214.003 351.242 224.959 344.679 227.351L344.158 227.495C336.956 229.322 331.817 218.972 335.796 213.472 337.825 210.667 341.206 208.811 343.746 206.48L354.296 195.932C366.867 183.089 379.381 169.709 390.358 155.474L398.022 144.63C399.435 142.634 400.772 141.494 403.206 141.088zM461.22 60.854C469.959 60.0812 471.084 68.3805 471.513 74.625 472.155 83.9616 472.005 94.0027 472.411 103.625L472.549 129.495C472.747 136.739 476.691 149.651 467.844 152.959L467.538 153.07C462.526 154.959 456.835 151.843 455.72 146.635 454.751 142.11 455.337 137.169 455.051 132.569L452.913 94.188 440.041 110.194C435.825 115.102 431.399 121.307 424.195 120.863 419.447 119.132 416.016 114.808 417.399 109.532L417.48 109.25C418.385 105.991 420.959 103.268 423.026 100.674L429.475 92.693C432.656 89.0808 436.086 85.6436 439.087 81.8872L406.42 85.0652C400.431 85.7157 394.058 86.8298 388.047 86.6424 376.776 86.2909 375.338 71.0602 386.875 68.9455L461.22 60.854zM44.5753 512C40.7406 509.442 36.6566 506.869 34.0001 503L33.7533 502.644C31.1492 498.82 31.033 494.004 30.8849 489.548L30.7796 434.427C30.7459 422.867 31.4702 414.858 43.6782 408.773 46.9479 407.143 49.0894 407.241 52.7476 407.246L83.7334 407.255C88.088 407.26 92.5844 407.018 96.8998 407.634 104.376 408.699 111.761 416.597 113.171 423.703L113.33 424.564C113.908 427.551 113.576 431.085 113.569 434.137L113.526 480.102C113.52 487.674 114.881 496.062 110.321 502.649L109.415 503.851C107.562 506.264 104.789 508.545 102.052 509.875L97.9816 512 44.5753 512z" transform="scale(2.92969)"></path><path fill="#A7C957" d="M87.2837 424.866C97.3022 424.374 96.3721 423.896 96.3133 433.436L96.149 454.442C96.0498 456.504 95.5893 458.535 95.5621 460.589L95.4137 492.694C90.0195 494.633 65.1583 493.988 58.5464 493.963C55.4755 493.94 52.2363 494.129 49.2074 493.596L50.1724 425.221C54.1528 424.461 58.8472 424.887 62.9087 424.879L87.2837 424.866Z" transform="scale(2.92969)"></path><path fill="#386641" d="M147.271 512C132.931 503.218 133.285 499.075 133.28 484.285L133.361 379.774C133.391 377.995 133.492 376.353 133.922 374.625L134.038 374.145C134.666 371.619 135.686 369.373 137.125 367.212L137.33 366.893C142.349 359.289 148.708 358.265 156.833 358.284L186.304 358.295C195.085 358.288 202.372 358.443 207.96 366.75L208.217 367.125C212.127 372.905 211.509 379.34 211.521 385.963L211.547 482.768C211.619 489.55 212.743 495.471 209.073 501.57L208.886 501.887C207.338 504.477 205.216 506.734 202.75 508.468L196.709 512L147.271 512Z" transform="scale(2.92969)"></path><path fill="#6A994E" d="M175.048 376.636L193.491 376.673L192.995 478.022C192.987 483.227 193.368 488.837 192.466 493.965L171.271 493.959L152.899 493.893L153.199 376.934L175.048 376.636Z" transform="scale(2.92969)"></path><path fill="#386641" d="M243.81 512C237.063 507.009 230.664 501.466 230.659 492.283L230.752 373.687C230.761 358.559 228.875 341.188 247.287 335.904C249.474 335.277 252.839 335.702 255.159 335.703L288.086 335.716C290.655 335.717 293.352 335.536 295.899 335.833C305.403 336.94 312.543 348.083 313.143 357.188C313.608 364.243 313.251 371.541 313.252 378.618L313.284 493.744C312.883 502.962 305.391 508.143 297.984 512L243.81 512Z" transform="scale(2.92969)"></path><path fill="#6A994E" d="M274.748 353.59L283.141 353.643C286.986 353.639 294.723 351.778 294.983 357.452L294.62 481.961C294.976 485.377 295.32 490.77 294.05 493.973L250.396 493.797L250.387 374.882C250.396 368.088 250.212 361.225 250.96 354.465C253.05 353.238 257.929 353.739 260.263 353.734L274.748 353.59Z" transform="scale(2.92969)"></path><path fill="#A7C957" d="M274.801 353.513L283.141 353.643C286.986 353.639 294.723 351.778 294.983 357.452L294.62 481.961C294.042 483.398 294.542 485.092 293.976 486.426C282.964 486.001 274.958 476.985 274.899 465.963L274.801 353.513Z" transform="scale(2.92969)"></path><path fill="#386641" d="M346.019 512C334.577 505.836 332.192 500.73 332.145 488.649L332.155 317.516C332.213 310.264 334.828 303.786 341 299.466L341.336 299.226C346.534 295.578 351.559 295.743 357.566 295.727L386.48 295.686C391.609 295.684 395.135 295.579 399.827 297.918L400.208 298.105C412.399 304.216 411.518 315.844 411.505 327.382L411.48 465.257C411.475 479.781 415.525 500.42 401.539 509.017C399.706 510.144 397.698 510.929 395.852 512L346.019 512Z" transform="scale(2.92969)"></path><path fill="#A7C957" d="M373.007 313.513C376.119 313.464 391.385 312.742 393.16 314.375C395.134 318.603 394 329.245 394 334.089L393.976 477.056C393.969 479.835 393.598 483.062 393.988 485.786C370.93 482.434 373.052 466.703 373.028 449.022L373.007 313.513Z" transform="scale(2.92969)"></path><path fill="#6A994E" d="M393.734 485.786L393.996 492.992L351.764 493.248L351.909 313.978C352.705 313.227 370.402 313.511 372.975 313.514L373.028 449.022C373.052 466.703 370.93 482.434 393.734 485.786Z" transform="scale(2.92969)"></path><path fill="#386641" d="M443.382 512C436.842 507.894 430.496 502.287 430.246 494.001L430.471 233.435C431.153 221.786 434.248 217.746 443.5 211.835L443.727 211.687C447.215 209.537 463.544 210.628 468.135 210.622L482.485 210.612C500.007 210.613 507.116 215.1 512 231.352L512 494.697L512 512L493.646 512L443.382 512ZM512 494.697C509.756 500.629 507.372 506.501 501.219 509.252L493.646 512L512 512L512 494.697Z" transform="scale(2.92969)"></path><path fill="#6A994E" d="M491.965 484.135L491.965 492.444L449.476 493.285L449.959 253.522L449.348 237.884C449.1 226.557 449.164 228.802 460.007 228.963L469.465 228.902C470.489 237.665 470.023 246.758 470.02 255.635L470.025 445.542C470.03 451.602 468.636 467.257 471.495 472.25L471.708 472.63C472.199 473.497 472.751 474.241 473.375 475.014L473.614 475.315C478.556 481.442 484.86 485 491.708 488.439C491.748 487.054 491.643 485.48 491.965 484.135Z" transform="scale(2.92969)"></path><path fill="#A7C957" d="M469.488 228.839C477.217 227.694 486.604 225.824 493.273 231.03L494.016 231.73C493.156 239.673 493.521 247.796 493.421 255.777C493.39 258.24 492.886 260.608 492.827 263.064L492.266 475.651C492.261 478.388 491.983 481.428 492.298 484.135C491.643 485.48 491.748 487.054 491.708 488.439C484.86 485 478.556 481.442 473.614 475.315L473.375 475.014C472.751 474.241 472.199 473.497 471.708 472.63L471.495 472.25C468.636 467.257 470.03 451.602 470.025 445.542L470.02 255.635C470.023 246.758 470.489 237.665 469.488 228.839Z" transform="scale(2.92969)"></path><path fill="#386641" d="M0 121.857L0.1007 121.544C1.14216 118.221 1.29111 114.419 1.94005 110.972C12.1412 56.7749 59.3153 11.8482 114 4.35346C134.021 1.60946 156.061 3.196 175.25 9.25893C239.533 29.5698 277.36 93.801 265.165 159.571C253.866 220.509 208.395 264.498 145.909 271.309C126.311 273.445 109.745 270.574 90.9297 264.219C48.4983 249.888 9.14151 206.539 2.03578 161.492L0.997779 153.666C0.785115 151.494 0.70425 148.985 0 146.911L0 121.857Z" transform="scale(2.92969)"></path><path fill="#A7C957" d="M189.39 210.279L189.416 210.278C193.359 217.368 200.292 223.529 206.587 228.525C188.368 245.568 167.562 251.341 143.511 253.503C144.096 248.319 145.038 240.539 142.714 235.875C139.46 229.345 129.254 228.129 127.228 236.358L127.144 236.718C125.833 241.878 126.579 248.188 126.674 253.5C102.164 250.474 84.093 246.953 64.4883 229.198C67.2797 223.403 78.6297 219.127 79.2059 209.585C79.4447 205.631 72.387 201.538 69.165 201.414C65.628 201.277 60.7104 207.469 58.4072 209.812L50.8279 217.424C31.1159 198.052 20.294 173.08 18.722 145.746L25.486 146.134C30.0476 146.16 36.9478 146.73 40.4202 143.215C45.7848 137.783 43.1285 129.255 35.6418 127.683C29.9684 126.491 23.5178 127.525 17.7917 128.048C21.3013 97.2625 29.9832 77.6884 50.612 53.7504C56.1234 58.8006 58.956 62.9892 63.4875 67.9563L63.7985 68.2883C60.8401 72.9965 60.2495 82.1083 59.734 87.5C55.7001 129.693 71.2994 182.111 115.009 197.23L121.577 199.233C122.956 199.639 124.841 200.158 125.989 201.03C126.17 203.141 125.825 206.54 126.67 208.497C130.424 217.183 141.056 216.214 144.161 204.889C147.941 204.929 151.761 204.857 155.531 205.112L171.713 207.007C177.4 207.732 183.596 208.374 188.978 210.451L189.39 210.279Z" transform="scale(2.92969)"></path><path fill="#EEEE38" d="M63.7985 68.2883C72.8784 73.6749 80.6578 72.7135 81.3868 60.402C79.9729 57.6023 77.9245 55.7011 75.7175 53.5369L69.0463 47.0193C67.7707 45.7625 66.1303 44.3533 65.2817 42.7799C79.8991 29.9897 107.436 21.9706 126.092 20.4366L126.225 31.8874C126.229 33.846 125.971 36.334 126.412 38.2282C127.84 44.3618 136.471 47.1413 140.937 42.375C145.355 37.6599 144.633 28.2479 144.209 22.0222L144.095 20.7701C167.517 23.5411 187.96 30.1091 206.025 45.3505L198.388 52.3438C195.077 55.427 191.347 58.7249 191.334 63.6007C191.321 68.2846 195.839 72.5681 200.512 72.4507C205.768 72.3186 214.544 59.9139 219.756 56.2729C237.608 76.4162 249.732 101.557 250.602 128.683C246.95 128.305 243.219 128.406 239.548 128.305C233.506 128.138 225.781 126.513 223.206 133.75L223.071 134.115C221.354 139.089 225.23 144.321 229.974 145.644L230.675 145.848C232.843 146.509 235.722 146.204 237.984 146.197L250.802 146.094C249.403 151.824 248.821 157.818 247.471 163.6C241.511 189.113 234.625 199.153 219.184 218.563L211.624 210.519C208.169 206.891 203.916 201.51 198.49 201.32C193.659 201.151 187.788 204.992 189.39 210.279L188.978 210.451C183.596 208.374 177.4 207.732 171.713 207.007L155.531 205.112C151.761 204.857 147.941 204.929 144.161 204.915C141.056 216.214 130.424 217.183 126.67 208.497C125.825 206.54 126.17 203.141 126.146 201.03C124.841 200.158 122.956 199.639 121.577 199.233L115.009 197.23C71.2994 182.111 55.7001 129.693 59.734 87.5C60.2495 82.1083 60.8401 72.9965 63.7985 68.2883Z" transform="scale(2.92969)"></path><path fill="#386641" d="M126.146 201.03L126.273 194.815C113.761 192.096 100.453 188.625 92.9801 177.108C86.8634 167.681 96.2023 160.884 102.417 162.663C106.794 163.916 110.377 169.005 114.321 171.376C121.688 175.805 142.126 177.506 150.233 173.409C161.171 167.881 160.705 150.972 148.795 147.337C145.509 146.334 141.883 146.571 138.485 146.577L124.405 146.611C121.128 146.618 117.645 146.815 114.42 146.181C83.2171 140.044 84.0399 85.777 122.158 78.836L126.614 78.2146C126.613 73.8152 125.924 67.8834 127.52 63.8033C130.675 55.743 144.352 58.4602 144.391 70.7441L144.381 77.6406C155.753 80.259 165.598 84.889 172.017 95.1112C177.155 103.293 179.898 122.909 166.266 118.699C159.215 116.522 159.499 115.589 158.5 109.851C157.705 105.28 154.364 100.666 150.366 98.3702C145.17 95.3875 130.535 94.7361 124.322 96.6381L123.875 96.7959C118.9 98.4945 114.524 100.584 111.982 105.5C108.857 111.546 108.14 122.502 114.688 126.718C117.976 128.836 121.801 128.595 125.527 128.574L139.889 128.494C142.775 128.487 145.807 128.32 148.661 128.745C184.473 134.072 184.035 184.454 149.105 192.342L144.034 193.397C144.468 197.065 144.716 201.228 144.161 204.889C141.056 216.214 130.424 217.183 126.67 208.497C125.825 206.54 126.17 203.141 126.146 201.03Z" transform="scale(2.92969)"></path></svg>