<?xml version="1.0" encoding="UTF-8"?>
<!DOCTYPE svg PUBLIC "-//W3C//DTD SVG 1.1//EN" "http://www.w3.org/Graphics/SVG/1.1/DTD/svg11.dtd">
<svg version="1.1" xmlns="http://www.w3.org/2000/svg" xmlns:xlink="http://www.w3.org/1999/xlink" x="0" y="0" width="436.006" height="407.119" viewBox="0, 0, 335.39, 313.169">
  <g id="layer1">
    <g id="path954">
      <path d="M62.938,3.462 C60.375,3.49 57.622,3.622 54.653,3.877 C53.488,29.683 60.781,48.32 70.847,64.604 C65.667,102.889 84.087,127.585 109.834,139.189 L108.043,139.249 C106.098,141.425 104.265,143.575 102.522,145.702 C75.722,153.705 47.527,132.428 34.107,132.566 C32.457,132.582 31.03,132.923 29.857,133.681 C20.245,139.896 55.88,177.332 83.041,177.367 C73.976,200.554 78.805,220.295 94.254,237.399 C95.26,248.324 100.541,260.361 107.791,270.948 C95.869,291.155 91.165,321.789 111.08,304.73 C116.046,300.476 122.235,296.711 129.016,293.153 C137.886,299.417 146.753,302.097 153.335,298.656 C157.04,295.735 153.854,290.586 148.767,283.641 C172.452,272.665 196.446,261.195 200.145,239.953 C211.89,241.335 221.216,225.756 229.411,203.102 C234.759,208.755 238.969,212.694 244.173,209.084 C251.414,204.062 249.451,189.591 238.467,174.294 C250.995,129.893 261.768,76.429 276.757,59.662 C304.208,28.952 331.937,33.862 331.937,33.862 C331.937,33.862 326.17,32.055 317.082,32.129 C305.397,32.222 288.221,35.426 270.749,49.573 C253.097,63.867 241.61,117.565 226.946,161.272 C217.263,152.202 204.329,143.718 188.18,137.697 C207.211,128.234 221.719,111.56 224.69,87.883 C243.192,68.554 249.928,43.479 261.136,20.429 C235.109,8.469 211.939,19.369 187.747,22.095 C161.183,10.776 135.034,6.503 109.815,18.047 C94.849,12.815 87.714,3.2 62.938,3.462 z M196.373,184.975 C204.239,184.898 210.46,187.264 215.591,190.582 C211.041,200.348 206.092,208.497 200.551,214.034 C197.942,202.523 191.346,197.463 188.507,185.806 C191.3,185.26 193.917,184.999 196.373,184.975 z" fill="#6F8A91" id="path67323"/>
      <path d="M62.938,3.462 C60.375,3.49 57.622,3.622 54.653,3.877 C53.488,29.683 60.781,48.32 70.847,64.604 C65.667,102.889 84.087,127.585 109.834,139.189 L108.043,139.249 C106.098,141.425 104.265,143.575 102.522,145.702 C75.722,153.705 47.527,132.428 34.107,132.566 C32.457,132.582 31.03,132.923 29.857,133.681 C20.245,139.896 55.88,177.332 83.041,177.367 C73.976,200.554 78.805,220.295 94.254,237.399 C95.26,248.324 100.541,260.361 107.791,270.948 C95.869,291.155 91.165,321.789 111.08,304.73 C116.046,300.476 122.235,296.711 129.016,293.153 C137.886,299.417 146.753,302.097 153.335,298.656 C157.04,295.735 153.854,290.586 148.767,283.641 C172.452,272.665 196.446,261.195 200.145,239.953 C211.89,241.335 221.216,225.756 229.411,203.102 C234.759,208.755 238.969,212.694 244.173,209.084 C251.414,204.062 249.451,189.591 238.467,174.294 C250.995,129.893 261.768,76.429 276.757,59.662 C304.208,28.952 331.937,33.862 331.937,33.862 C331.937,33.862 326.17,32.055 317.082,32.129 C305.397,32.222 288.221,35.426 270.749,49.573 C253.097,63.867 241.61,117.565 226.946,161.272 C217.263,152.202 204.329,143.718 188.18,137.697 C207.211,128.234 221.719,111.56 224.69,87.883 C243.192,68.554 249.928,43.479 261.136,20.429 C235.109,8.469 211.939,19.369 187.747,22.095 C161.183,10.776 135.034,6.503 109.815,18.047 C94.849,12.815 87.714,3.2 62.938,3.462 z M196.373,184.975 C204.239,184.898 210.46,187.264 215.591,190.582 C211.041,200.348 206.092,208.497 200.551,214.034 C197.942,202.523 191.346,197.463 188.507,185.806 C191.3,185.26 193.917,184.999 196.373,184.975 z" fill-opacity="0" stroke="#000000" stroke-width="6.915" stroke-linecap="round" stroke-linejoin="round" id="path67325"/>
    </g>
    <g id="g1032">
      <g id="path830">
        <path d="M117.608,137.737 C83.908,165.049 42.572,125.599 30.06,133.689 C18.954,140.87 68.25,189.729 95.089,174.427 z" fill="#6F8A91" id="path67328"/>
        <path d="M117.608,137.737 C83.908,165.049 42.572,125.599 30.06,133.689 C18.954,140.87 68.25,189.729 95.089,174.427 z" fill-opacity="0" stroke="#020202" stroke-width="1.292" id="path67330"/>
      </g>
      <g id="g1023">
        <g id="path899">
          <path d="M184.116,221.932 C227.924,221.932 239.889,74.734 270.951,49.581 C302.014,24.43 332.14,33.869 332.14,33.869 C332.14,33.869 304.411,28.959 276.96,59.669 C249.508,90.379 236.197,244.178 200.35,239.961 z" fill="#6F8A91" id="path67333"/>
          <path d="M184.116,221.932 C227.924,221.932 239.889,74.734 270.951,49.581 C302.014,24.43 332.14,33.869 332.14,33.869 C332.14,33.869 304.411,28.959 276.96,59.669 C249.508,90.379 236.197,244.178 200.35,239.961 z" fill-opacity="0" stroke="#000000" stroke-width="1.56" id="path67335"/>
        </g>
        <g id="path832">
          <path d="M94.583,229.082 C90.237,260.633 133.01,309.397 153.539,298.664 C163.571,290.752 123.115,266.55 131.019,234.395 z" fill="#6F8A91" id="path67338"/>
          <path d="M94.583,229.082 C90.237,260.633 133.01,309.397 153.539,298.664 C163.571,290.752 123.115,266.55 131.019,234.395 z" fill-opacity="0" stroke="#000000" stroke-width="1.292" id="path67340"/>
        </g>
        <g id="path828">
          <path d="M108.246,139.255 C61.889,191.154 73.436,228.682 119.379,257.674 C100.664,270.158 85.767,326.595 111.283,304.736 C136.798,282.879 194.44,273.876 200.35,239.961 C206.258,206.047 193.063,203.69 188.709,185.814 C224.471,178.838 231.149,218.267 244.377,209.091 C258.269,199.456 238.303,155.04 185.674,136.726 z" fill="#B7C4C8" id="path67343"/>
          <path d="M108.246,139.255 C61.889,191.154 73.436,228.682 119.379,257.674 C100.664,270.158 85.767,326.595 111.283,304.736 C136.798,282.879 194.44,273.876 200.35,239.961 C206.258,206.047 193.063,203.69 188.709,185.814 C224.471,178.838 231.149,218.267 244.377,209.091 C258.269,199.456 238.303,155.04 185.674,136.726 z" fill-opacity="0" stroke="#000000" stroke-width="1.426" id="path67345"/>
        </g>
        <path d="M117.608,137.737 C117.608,137.737 85.481,172.782 86.785,202.967 C87.769,225.789 107.145,250.621 131.872,249.844 C168.909,248.676 154.058,147.501 154.058,147.501 z" fill="#D7E3F4" id="path897"/>
        <g id="path826">
          <path d="M110.018,18.055 C93.505,12.282 86.525,1.171 54.857,3.885 C53.691,29.693 60.984,48.328 71.051,64.612 C57.097,167.716 214.303,172.299 224.892,87.891 C243.395,68.561 250.132,43.486 261.339,20.437 C235.312,8.477 212.142,19.377 187.95,22.103 C161.386,10.784 135.236,6.512 110.018,18.055 z" fill="#B7C4C8" id="path67349"/>
          <path d="M110.018,18.055 C93.505,12.282 86.525,1.171 54.857,3.885 C53.691,29.693 60.984,48.328 71.051,64.612 C57.097,167.716 214.303,172.299 224.892,87.891 C243.395,68.561 250.132,43.486 261.339,20.437 C235.312,8.477 212.142,19.377 187.95,22.103 C161.386,10.784 135.236,6.512 110.018,18.055 z" fill-opacity="0" stroke="#011403" stroke-width="1.426" id="path67351"/>
        </g>
      </g>
    </g>
    <g id="path1096">
      <path d="M109.118,139.345 L103.282,145.858 C125.579,155.797 154.144,162.33 200.134,143.491 L188.18,137.697 C153.465,153.268 134.284,147.167 109.118,139.345 z" fill="#214478" id="path67356"/>
      <path d="M109.118,139.345 L103.282,145.858 C125.579,155.797 154.144,162.33 200.134,143.491 L188.18,137.697 C153.465,153.268 134.284,147.167 109.118,139.345 z" fill-opacity="0" stroke="#000000" stroke-width="0.354" id="path67358"/>
    </g>
    <path d="M261.339,20.437 C239.61,23.831 229.718,37.144 216.106,47.34 C206.456,32.259 197.538,28.941 187.76,22.767 C213.257,19.801 242.796,8.464 261.339,20.437 z" fill="#D1DFE3" id="path1074"/>
    <path d="M261.339,20.437 C251.124,44.015 242.632,68.489 224.387,87.891 C225.002,73.969 223.803,60.312 216.106,47.34 C229.718,36.862 240.422,23.389 261.339,20.437 z" fill="#6F8A91" id="path1076"/>
    <path d="M112.735,104.133 C112.735,104.133 113.134,114.93 122.322,116.234 C131.512,117.538 134.122,108.014 134.122,108.014 C134.122,108.014 133.424,119.787 144.225,122.024 C155.025,124.261 166.793,110.957 166.793,110.957" fill-opacity="0" stroke="#000000" stroke-width="1.318" stroke-linecap="round" stroke-linejoin="round" id="path857"/>
    <g id="g868">
      <path d="M82.287,78.45 C61.79,79.719 41.773,78.822 20.064,85.561" fill-opacity="0" stroke="#000000" stroke-width="0.772" stroke-linecap="round" stroke-linejoin="round" id="path859"/>
      <path d="M85.679,83.011 C58.99,85.032 33.159,91.907 7.628,100.487" fill-opacity="0" stroke="#000000" stroke-width="0.772" stroke-linecap="round" stroke-linejoin="round" id="path861"/>
      <path d="M86.817,87.029 C49.461,93.59 35.108,99.678 0.391,113.159" fill-opacity="0" stroke="#000000" stroke-width="0.772" stroke-linecap="round" stroke-linejoin="round" id="path863"/>
    </g>
    <g id="g876">
      <path d="M217.605,87.883 C238.002,90.273 258.037,90.474 279.345,98.391" fill-opacity="0" stroke="#000000" stroke-width="0.772" stroke-linecap="round" stroke-linejoin="round" id="path870"/>
      <path d="M213.967,92.251 C240.507,95.731 265.923,104.01 290.944,113.974" fill-opacity="0" stroke="#000000" stroke-width="0.772" stroke-linecap="round" stroke-linejoin="round" id="path872"/>
      <path d="M212.611,96.202 C249.552,104.799 284.878,117.018 318.804,132.378" fill-opacity="0" stroke="#000000" stroke-width="0.772" stroke-linecap="round" stroke-linejoin="round" id="path874"/>
    </g>
    <path d="M71.051,64.612 C74.806,51.102 78.985,39.661 88.8,30.639 C79.836,17.913 72.886,7.516 55.55,4.556 C55.142,21.852 52.929,35.819 71.051,64.612 z" fill="#6F8A91" id="path1040"/>
    <path d="M55.55,4.556 C73.28,10.499 80.751,19.057 88.8,30.639 C98.008,22.991 102.2,21.136 110.065,18.799 C92.483,10.458 76.327,-0.336 55.55,4.556 z" fill="#D1DFE3" id="path1038"/>
    <path d="M110.003,18.055 C93.491,12.282 86.511,1.171 54.843,3.885 C53.678,29.693 60.971,48.328 71.037,64.612 C57.083,167.716 214.288,172.299 224.879,87.891 C243.382,68.561 250.118,43.486 261.325,20.437 C235.298,8.477 212.128,19.377 187.936,22.103 C161.373,10.784 135.222,6.512 110.003,18.055 z" fill-opacity="0" stroke="#000000" stroke-width="1.426" id="path1052"/>
    <path d="M96.961,62.986 C111.233,57.938 117.645,65.664 124.514,72.647" fill-opacity="0" stroke="#000000" stroke-width="1.292" stroke-linecap="round" stroke-linejoin="round" id="path1078"/>
    <path d="M190.91,74.846 C178.179,66.654 170.164,72.701 161.875,77.92" fill-opacity="0" stroke="#000000" stroke-width="1.292" stroke-linecap="round" stroke-linejoin="round" id="path1080"/>
    <path d="M118.672,84.528 C118.206,86.6 112.514,87.088 105.958,85.615 C99.402,84.143 94.465,81.269 94.93,79.195 C95.395,77.123 101.088,76.636 107.644,78.109 C114.2,79.58 119.137,82.454 118.672,84.528 z" fill="#D1DFE3" id="path1082"/>
    <path d="M196.502,95.799 C196.036,97.872 190.343,98.359 183.788,96.887 C177.232,95.414 172.294,92.54 172.76,90.468 C173.225,88.394 178.918,87.908 185.474,89.381 C192.03,90.852 196.967,93.727 196.502,95.799 z" fill="#D1DFE3" id="ellipse1084"/>
    <g id="path1086">
      <path d="M142.73,101.871 C142.73,105.429 139.568,108.314 135.668,108.314 C131.768,108.314 128.606,105.429 128.606,101.871 C128.606,98.312 131.768,95.427 135.668,95.427 C139.568,95.427 142.73,98.312 142.73,101.871 z" fill="#6F8A91" id="path67379"/>
      <path d="M142.73,101.871 C142.73,105.429 139.568,108.314 135.668,108.314 C131.768,108.314 128.606,105.429 128.606,101.871 C128.606,98.312 131.768,95.427 135.668,95.427 C139.568,95.427 142.73,98.312 142.73,101.871 z" fill-opacity="0" stroke="#000000" stroke-width="0.813" stroke-linecap="round" stroke-linejoin="round" id="path67381"/>
    </g>
    <g id="g1114">
      <g id="path1090">
        <path d="M109.834,139.189 C107.007,138.869 105.067,139.647 104.776,142.191 C104.334,146.045 111.166,148.259 110.657,152.233 C110.149,156.207 102.671,156.954 101.901,161.015 C100.364,169.102 127.802,160.237 133.511,158.311 C134.274,159.479 135.477,160.243 136.819,160.41 C138.16,160.574 139.512,160.127 140.538,159.18 C145.605,162.438 170.057,177.721 170.538,169.503 C170.778,165.375 163.708,162.831 164.182,158.853 C164.658,154.875 171.824,154.391 172.333,150.545 C173.479,141.918 151.194,148.444 140.881,151.902 C140.13,151.08 139.133,150.56 138.054,150.425 C136.973,150.292 135.879,150.555 134.95,151.169 C128.486,147.028 116.615,139.956 109.834,139.189 z" fill="#2C5AA0" id="path67384"/>
        <path d="M109.834,139.189 C107.007,138.869 105.067,139.647 104.776,142.191 C104.334,146.045 111.166,148.259 110.657,152.233 C110.149,156.207 102.671,156.954 101.901,161.015 C100.364,169.102 127.802,160.237 133.511,158.311 C134.274,159.479 135.477,160.243 136.819,160.41 C138.16,160.574 139.512,160.127 140.538,159.18 C145.605,162.438 170.057,177.721 170.538,169.503 C170.778,165.375 163.708,162.831 164.182,158.853 C164.658,154.875 171.824,154.391 172.333,150.545 C173.479,141.918 151.194,148.444 140.881,151.902 C140.13,151.08 139.133,150.56 138.054,150.425 C136.973,150.292 135.879,150.555 134.95,151.169 C128.486,147.028 116.615,139.956 109.834,139.189 z" fill-opacity="0" stroke="#172F53" stroke-width="0.135" id="path67386"/>
      </g>
      <g id="g1107">
        <path d="M141.43,155.405 C141.43,157.602 139.591,159.383 137.323,159.383 C135.054,159.383 133.215,157.602 133.215,155.405 C133.215,153.208 135.054,151.427 137.323,151.427 C139.591,151.427 141.43,153.208 141.43,155.405 z" fill="#214478" id="path1098"/>
        <path d="M133.728,153.697 C130.762,150.829 126.524,149.778 122.814,147.972 C127.279,150.082 132.037,152.094 134.265,154.95 C131.595,153.355 128.734,152.283 125.588,151.998 C128.679,152.608 131.411,153.744 133.728,155.487 C130.995,155.267 128.266,155.03 125.766,153.876 C128.398,155.708 131.318,155.811 134.176,156.292 C129.958,157.11 125.442,156.905 120.935,156.739 C125.306,157.152 129.576,157.986 134.282,156.996 z" fill="#214478" id="path1100"/>
        <path d="M141.19,154.38 C145.029,152.865 149.347,153.516 153.465,153.268 C148.532,153.509 143.367,153.546 140.215,155.331 C143.293,154.88 146.346,154.984 149.362,155.927 C146.272,155.305 143.313,155.31 140.505,156.033 C143.114,156.877 145.726,157.701 148.478,157.593 C145.345,158.277 142.607,157.255 139.784,156.605 C143.367,158.975 147.618,160.516 151.845,162.087 C147.649,160.796 143.385,159.932 139.416,157.216 z" fill="#214478" id="path1102"/>
      </g>
    </g>
  </g>
</svg>
